<svg width="55" height="43" viewBox="0 0 55 43" fill="none" xmlns="http://www.w3.org/2000/svg">
<g clip-path="url(#clip0)">
<path d="M53.8676 42.295V42.4042H53.9698C53.989 42.4045 54.0079 42.3997 54.0247 42.3902C54.0313 42.3855 54.0367 42.3793 54.0403 42.372C54.0439 42.3647 54.0456 42.3566 54.0452 42.3485C54.0456 42.3405 54.0439 42.3326 54.0403 42.3255C54.0367 42.3184 54.0313 42.3123 54.0247 42.3078C54.0081 42.2979 53.9891 42.2931 53.9698 42.2939H53.8676V42.295ZM53.9709 42.2177C54.0147 42.215 54.0582 42.2276 54.0937 42.2532C54.108 42.2648 54.1193 42.2796 54.1268 42.2964C54.1343 42.3132 54.1377 42.3315 54.1368 42.3498C54.1374 42.3656 54.1347 42.3814 54.1287 42.396C54.1228 42.4107 54.1137 42.4239 54.1022 42.4347C54.0748 42.4585 54.0404 42.4728 54.0041 42.4754L54.1412 42.631H54.0356L53.9095 42.4765H53.8687V42.631H53.7804V42.218H53.9723L53.9709 42.2177ZM53.9435 42.7735C53.9898 42.7739 54.0357 42.7646 54.0781 42.7462C54.119 42.7287 54.1562 42.7036 54.1878 42.6722C54.2194 42.6409 54.2446 42.6039 54.2621 42.563C54.298 42.4765 54.298 42.3793 54.2621 42.2928C54.2443 42.2521 54.2191 42.2151 54.1878 42.1836C54.1562 42.1523 54.119 42.1272 54.0781 42.1096C54.0354 42.0922 53.9896 42.0835 53.9435 42.084C53.8966 42.0835 53.85 42.0922 53.8064 42.1096C53.7646 42.1268 53.7265 42.152 53.6943 42.1836C53.6458 42.2331 53.613 42.2958 53.6 42.3637C53.587 42.4317 53.5943 42.5019 53.6211 42.5658C53.6378 42.6067 53.6627 42.6439 53.6943 42.675C53.7265 42.7066 53.7646 42.7317 53.8064 42.7489C53.8497 42.7673 53.8964 42.7766 53.9435 42.7762V42.7735ZM53.9435 41.9846C54.064 41.9845 54.1797 42.0315 54.2656 42.1156C54.3071 42.156 54.3401 42.2042 54.3627 42.2573C54.3861 42.3119 54.3982 42.3706 54.3982 42.43C54.3982 42.4893 54.3861 42.548 54.3627 42.6026C54.3395 42.6555 54.3066 42.7035 54.2656 42.7443C54.2236 42.7844 54.1746 42.8168 54.1212 42.8398C54.065 42.8636 54.0045 42.8757 53.9435 42.8753C53.8818 42.8758 53.8206 42.8637 53.7637 42.8398C53.7095 42.8173 53.6602 42.7849 53.6181 42.7443C53.5771 42.702 53.5446 42.6524 53.5224 42.598C53.499 42.5434 53.4869 42.4847 53.4869 42.4253C53.4869 42.366 53.499 42.3072 53.5224 42.2527C53.545 42.1995 53.578 42.1514 53.6194 42.111C53.661 42.0696 53.7105 42.0371 53.765 42.0154C53.8219 41.9916 53.8831 41.9795 53.9449 41.98L53.9435 41.9846ZM11.9648 40.3896C11.9648 39.6021 12.483 38.9551 13.3298 38.9551C14.1391 38.9551 14.6853 39.5742 14.6853 40.3896C14.6853 41.205 14.1391 41.8241 13.3298 41.8241C12.483 41.8241 11.9648 41.1771 11.9648 40.3896ZM15.6078 40.3896V38.1485H14.6293V38.6945C14.319 38.291 13.8483 38.038 13.2081 38.038C11.947 38.038 10.9573 39.0228 10.9573 40.3907C10.9573 41.7586 11.9464 42.7435 13.2081 42.7435C13.848 42.7435 14.319 42.4902 14.6293 42.087V42.631H15.6067V40.3896H15.6078ZM48.6687 40.3896C48.6687 39.6021 49.1869 38.9551 50.034 38.9551C50.8442 38.9551 51.3895 39.5742 51.3895 40.3896C51.3895 41.205 50.8442 41.8241 50.034 41.8241C49.1872 41.8241 48.6687 41.1771 48.6687 40.3896ZM52.3128 40.3896V36.3496H51.3335V38.6945C51.0232 38.291 50.5525 38.038 49.9123 38.038C48.6512 38.038 47.6615 39.0228 47.6615 40.3907C47.6615 41.7586 48.6507 42.7435 49.9123 42.7435C50.5525 42.7435 51.0232 42.4902 51.3335 42.087V42.631H52.3128V40.3896ZM27.7518 38.909C28.3823 38.909 28.7873 39.3026 28.8906 39.9957H26.5559C26.6604 39.3488 27.0549 38.909 27.7521 38.909H27.7518ZM27.7715 38.0355C26.4528 38.0355 25.5303 38.9909 25.5303 40.3883C25.5303 41.8129 26.4898 42.741 27.837 42.741C28.5148 42.741 29.1354 42.5726 29.6816 42.1132L29.2021 41.3912C28.8248 41.6914 28.3445 41.8599 27.893 41.8599C27.2624 41.8599 26.6883 41.5691 26.5471 40.7625H29.8883C29.8979 40.6413 29.9077 40.519 29.9077 40.388C29.8979 38.9912 29.0304 38.0352 27.771 38.0352L27.7715 38.0355ZM39.5843 40.388C39.5843 39.6005 40.1025 38.9535 40.9494 38.9535C41.7587 38.9535 42.3048 39.5726 42.3048 40.388C42.3048 41.2034 41.7587 41.8225 40.9494 41.8225C40.1025 41.8225 39.5841 41.1755 39.5841 40.388H39.5843ZM43.227 40.388V38.1485H42.2491V38.6945C41.9377 38.291 41.4681 38.038 40.8279 38.038C39.5668 38.038 38.5771 39.0228 38.5771 40.3907C38.5771 41.7586 39.5662 42.7435 40.8279 42.7435C41.4681 42.7435 41.9377 42.4902 42.2491 42.087V42.631H43.2273V40.3896L43.227 40.388ZM34.0587 40.388C34.0587 41.7471 35.0089 42.7407 36.4592 42.7407C37.1369 42.7407 37.5885 42.5906 38.0768 42.2065L37.6068 41.419C37.2395 41.6819 36.8537 41.8225 36.428 41.8225C35.6469 41.8129 35.0726 41.2506 35.0726 40.388C35.0726 39.5254 35.6469 38.9633 36.428 38.9535C36.8526 38.9535 37.2384 39.0941 37.6068 39.357L38.0768 38.5694C37.5877 38.1854 37.1361 38.0352 36.4592 38.0352C35.0089 38.0352 34.0587 39.0286 34.0587 40.388ZM46.6726 38.0352C46.1081 38.0352 45.7405 38.2981 45.4864 38.6917V38.1485H44.5167V42.6285H45.4962V40.1172C45.4962 39.3758 45.8162 38.9639 46.4558 38.9639C46.6652 38.9609 46.8732 38.9992 47.0677 39.0766L47.3693 38.1583C47.1527 38.0734 46.8703 38.036 46.6721 38.036L46.6726 38.0352ZM20.4453 38.5047C19.9745 38.1957 19.3259 38.036 18.6103 38.036C17.4704 38.036 16.7365 38.5801 16.7365 39.4702C16.7365 40.2007 17.2829 40.6514 18.289 40.792L18.7513 40.8575C19.2878 40.9326 19.5411 41.0731 19.5411 41.3262C19.5411 41.6726 19.1847 41.8702 18.5155 41.8702C17.8378 41.8702 17.3487 41.6546 17.0189 41.4015L16.5591 42.1612C17.0956 42.5548 17.7733 42.7427 18.5073 42.7427C19.8067 42.7427 20.5599 42.1334 20.5599 41.2803C20.5599 40.4928 19.9671 40.0809 18.9878 39.9403L18.5267 39.8737C18.1031 39.8191 17.7637 39.7342 17.7637 39.4339C17.7637 39.1064 18.0837 38.9093 18.6205 38.9093C19.1948 38.9093 19.7508 39.1249 20.0233 39.2934L20.4469 38.5058L20.4453 38.5047ZM33.0704 38.0369C32.5059 38.0369 32.1383 38.2997 31.8852 38.6934V38.1485H30.9155V42.6285H31.894V40.1172C31.894 39.3758 32.2139 38.9639 32.8535 38.9639C33.063 38.9609 33.271 38.9992 33.4655 39.0766L33.767 38.1583C33.5504 38.0734 33.2681 38.036 33.0698 38.036L33.0704 38.0369ZM24.7207 38.1485H23.1207V36.7894H22.1316V38.1485H21.2189V39.0389H22.1316V41.0827C22.1316 42.1222 22.5368 42.7413 23.6943 42.7413C24.1189 42.7413 24.608 42.6103 24.9184 42.3949L24.6357 41.5607C24.3438 41.7291 24.0238 41.814 23.7694 41.814C23.2803 41.814 23.1207 41.5137 23.1207 41.0641V39.0398H24.7207V38.1485ZM10.092 42.6296V39.818C10.092 38.7591 9.41434 38.0467 8.32183 38.0371C7.74747 38.0276 7.15502 38.2056 6.74022 38.8342C6.42988 38.3374 5.94079 38.0371 5.2532 38.0371C4.77261 38.0371 4.30298 38.1777 3.93534 38.7024V38.1485H2.95605V42.6285H3.94301V40.1445C3.94301 39.3668 4.37618 38.9535 5.04512 38.9535C5.69487 38.9535 6.02358 39.3752 6.02358 40.1347V42.628H7.01273V40.1439C7.01273 39.3662 7.46427 38.953 8.11374 38.953C8.78186 38.953 9.1007 39.3747 9.1007 40.1341V42.6275L10.092 42.6296Z" fill="#231F20"/>
<path d="M54.4261 27.7274V27.0723H54.2548L54.0566 27.5218L53.8595 27.0723H53.6876V27.7274H53.8093V27.2339L53.9946 27.6597H54.1207L54.3061 27.2328V27.7274H54.4267H54.4261ZM53.3391 27.7274V27.1845H53.5584V27.0739H52.998V27.1845H53.2174V27.7274H53.338H53.3391Z" fill="#F79410"/>
<path d="M34.951 30.537H20.123V4.00391H34.9513L34.951 30.537Z" fill="#FF5F00"/>
<path d="M21.0627 17.27C21.0627 11.8877 23.5937 7.09322 27.5349 4.00343C24.5516 1.66116 20.8617 0.389937 17.0625 0.395526C7.70362 0.395526 0.117188 7.95036 0.117188 17.27C0.117188 26.5896 7.70362 34.1444 17.0625 34.1444C20.8618 34.1501 24.5518 32.8789 27.5352 30.5365C23.5942 27.4473 21.0627 22.6525 21.0627 17.27Z" fill="#EB001B"/>
<path d="M54.9555 17.271C54.9555 26.5906 47.3691 34.1454 38.0102 34.1454C34.2105 34.151 30.5201 32.8798 27.5361 30.5375C31.4785 27.4477 34.0095 22.6535 34.0095 17.271C34.0095 11.8884 31.4785 7.0942 27.5361 4.0044C30.52 1.66221 34.2104 0.391011 38.01 0.396502C47.3688 0.396502 54.9552 7.95134 54.9552 17.271" fill="#F79E1B"/>
</g>
<defs>
<clipPath id="clip0">
<rect width="54.8311" height="42.4748" fill="white" transform="translate(0.117188 0.396484)"/>
</clipPath>
</defs>
</svg>
