<svg width="1913" height="75" viewBox="0 0 1913 75" fill="none" xmlns="http://www.w3.org/2000/svg">
<path d="M0 8.90365L65.0333 6.1819C130.067 3.5619 260.133 -2.03423 390.2 0.763836C520.267 3.5619 650.333 14.2454 780.4 27.905C910.467 41.4629 1040.53 57.7425 1170.6 63.1606C1300.67 68.6804 1430.73 63.0843 1560.8 56.3944C1690.87 49.6027 1820.93 41.4629 1885.97 37.393L1951 33.3231V74.0222H1885.97C1820.93 74.0222 1690.87 74.0222 1560.8 74.0222C1430.73 74.0222 1300.67 74.0222 1170.6 74.0222C1040.53 74.0222 910.467 74.0222 780.4 74.0222C650.333 74.0222 520.267 74.0222 390.2 74.0222C260.133 74.0222 130.067 74.0222 65.0333 74.0222H0V8.90365Z" fill="#FAFAFA"/>
</svg>
