<svg width="1920" height="94" viewBox="0 0 1920 94" fill="none" xmlns="http://www.w3.org/2000/svg">
<path d="M2457 11.3067L2374.83 7.85033C2292.67 4.52322 2128.33 -2.58324 1964 0.969988C1799.67 4.52322 1635.33 18.0901 1471 35.4363C1306.67 52.6533 1142.33 73.3267 978 80.207C813.667 87.2166 649.333 80.1101 485 71.6147C320.667 62.99 156.333 52.6533 74.1666 47.485L-8.00004 42.3167V94H74.1666C156.333 94 320.667 94 485 94C649.333 94 813.667 94 978 94C1142.33 94 1306.67 94 1471 94C1635.33 94 1799.67 94 1964 94C2128.33 94 2292.67 94 2374.83 94H2457V11.3067Z" fill="#FAFAFA"/>
</svg>
