<svg width="40" height="40" viewBox="0 0 40 40" fill="none" xmlns="http://www.w3.org/2000/svg">
<g clip-path="url(#clip0)">
<path d="M38.3499 22.932C37.3026 21.8845 35.9424 21.3347 34.5659 21.2808C34.8357 20.0599 34.9792 18.7916 34.9792 17.4895C34.9791 7.83039 27.1488 0 17.4896 0C7.83039 0 0 7.83039 0 17.4896C0 27.1488 7.83039 34.9792 17.4896 34.9792C19.2457 34.9792 20.9408 34.7193 22.5399 34.2377L27.9591 39.6568C28.1788 39.8766 28.4769 40.0001 28.7877 40.0001C29.0984 40.0001 29.3966 39.8766 29.6163 39.6568L38.343 30.9299C40.5496 28.7233 40.5527 25.1355 38.3499 22.932ZM32.6354 17.4896C32.6354 18.9463 32.4295 20.3818 32.0228 21.7647C31.3963 22.0449 30.8206 22.4395 30.3334 22.9255L28.7816 24.477L27.3645 23.0598V20.7053C27.3645 19.736 26.9712 18.7869 26.2856 18.1012L21.1813 12.9968C20.932 12.7475 20.7891 12.4024 20.7891 12.05C20.7891 11.6928 20.9284 11.3567 21.1813 11.1038L26.7657 5.51938C30.4583 8.38438 32.6354 12.7905 32.6354 17.4896ZM2.34375 17.4896C2.34375 10.332 7.0675 5.3157 11.9666 3.38516V5.57141C11.9666 5.92859 11.8273 6.26469 11.5739 6.51797L8.64531 9.44656C7.22391 10.8679 7.19086 13.1998 8.64531 14.6542L13.7979 19.807C14.3213 20.3303 14.3214 21.1759 13.7978 21.6995L7.04453 28.4533C4.04453 25.5974 2.34375 21.6586 2.34375 17.4896ZM17.4896 32.6354C14.4062 32.6354 11.3913 31.6862 8.87109 29.9412L15.4551 23.3566C16.8936 21.9182 16.8956 19.59 15.4551 18.1496L10.3025 12.9969C9.78875 12.4832 9.77187 11.6345 10.3025 11.1038L13.2315 8.17484C13.9271 7.47922 14.3103 6.55461 14.3103 5.57133V2.67836C15.3502 2.45609 16.4161 2.34375 17.4896 2.34375C20.0548 2.34375 22.5434 2.98359 24.7657 4.20508L19.5241 9.44656C18.0605 10.9101 18.112 13.2421 19.5241 14.6542L24.6284 19.7585C24.8777 20.0078 25.0207 20.353 25.0207 20.7054V21.5578C23.0459 20.9006 20.7864 21.3646 19.2322 22.9188C17.0266 25.1245 17.023 28.7175 19.2259 30.9299L20.6095 32.3134C19.5887 32.5275 18.5452 32.6354 17.4896 32.6354ZM36.6858 29.2727L28.7876 37.1709L20.8911 29.2744C19.5998 27.9775 19.6018 25.8698 20.8955 24.5762C22.1926 23.2797 24.2934 23.2973 25.5791 24.5829L27.959 26.9628C28.4165 27.4203 29.1585 27.4204 29.6162 26.9629L31.9951 24.5845C33.2914 23.2934 35.3988 23.2953 36.6925 24.5891C37.9817 25.8787 37.9787 27.9798 36.6858 29.2727Z" fill="#0FC057"/>
</g>
<defs>
<clipPath id="clip0">
<rect width="40" height="40" fill="white"/>
</clipPath>
</defs>
</svg>
