<svg width="40" height="40" viewBox="0 0 40 40" fill="none" xmlns="http://www.w3.org/2000/svg">
<path d="M33.3814 37.9998C31.838 36.4552 27.7199 32.8959 21.1722 32.4944V29.9584H22.5108C26.5551 29.9584 29.9587 26.693 29.9587 22.5105C29.9587 21.8633 29.434 21.3386 28.7868 21.3386H26.2764C24.3871 21.3386 22.5392 22.0747 21.1722 23.3629V19.7245C22.6296 19.2338 23.6827 17.8552 23.6827 16.2345V14.2097L25.2415 12.6499C27.3645 10.5247 27.9965 7.3557 26.8506 4.57406C25.6984 1.79539 23.0095 0 20.0003 0C16.9911 0 14.3022 1.79539 13.1492 4.57648C12.0042 7.3557 12.6362 10.5247 14.7589 12.6497L16.3181 14.2097V16.2344C16.3181 17.8551 17.371 19.2337 18.8285 19.7244V23.363C17.4597 22.074 15.6127 21.3386 13.7243 21.3386H11.2139C10.5667 21.3386 10.0421 21.8645 10.0421 22.5117C10.0421 26.6903 13.4433 29.9584 17.49 29.9584H18.8285V32.4944C12.2806 32.8959 8.16237 36.4555 6.61932 37.9998C6.28432 38.335 6.18424 38.839 6.36573 39.2767C6.54713 39.7145 6.9744 39.9999 7.44831 39.9999H32.5525C33.0264 39.9999 33.4536 39.7145 33.635 39.2767C33.8164 38.839 33.7164 38.335 33.3814 37.9998ZM26.2764 23.6823H27.481C26.7419 26.8499 23.8209 27.6145 22.5108 27.6145H21.3061C22.0452 24.447 24.9663 23.6823 26.2764 23.6823ZM17.4899 27.6146C15.9269 27.6146 13.2117 26.6495 12.5196 23.6823H13.7242C15.291 23.6823 18.0034 24.6506 18.6946 27.6146H17.4899ZM16.4173 10.9934C14.9649 9.53953 14.5326 7.37109 15.3152 5.47164C16.103 3.57156 17.9421 2.34375 20.0003 2.34375C22.0586 2.34375 23.8976 3.57156 24.6845 5.46922C25.4679 7.37117 25.0357 9.53953 23.5831 10.9937L22.0257 12.552H21.1722V10.4437L22.0842 9.5318C22.5418 9.07414 22.5418 8.33219 22.0842 7.87453C21.6266 7.41695 20.8846 7.41687 20.4269 7.87453L20.0003 8.30109L19.5738 7.87453C19.1162 7.41687 18.3742 7.41687 17.9165 7.87453C17.4589 8.33219 17.4589 9.07414 17.9165 9.5318L18.8285 10.4437V12.5521H17.975L16.4173 10.9934ZM18.6617 16.2344V14.8959H21.3389V16.2344C21.3389 16.9724 20.7383 17.5729 20.0003 17.5729C19.2622 17.5729 18.6617 16.9724 18.6617 16.2344ZM10.6943 37.6562C12.3344 36.5441 15.5644 34.8009 20.0003 34.8009C24.4398 34.8009 27.6703 36.5469 29.3064 37.6562H10.6943Z" fill="#0FC057"/>
</svg>
