<svg width="40" height="40" viewBox="0 0 40 40" fill="none" xmlns="http://www.w3.org/2000/svg">
<path d="M30.0414 11.2969H28.1586C24.4668 11.2969 21.5045 13.3966 19.9997 16.0938C18.4946 13.396 15.5317 11.2969 11.8408 11.2969H9.95801C9.31082 11.2969 8.78613 11.8216 8.78613 12.4688V14.3516C8.78613 19.5584 13.0157 23.6823 18.1169 23.6823H18.8279V28.2159C18.8279 28.863 19.3525 29.3877 19.9997 29.3877C20.6469 29.3877 21.1716 28.863 21.1716 28.2159V23.6823H21.8825C26.9886 23.6823 31.2133 19.5541 31.2133 14.3516V12.4688C31.2133 11.8216 30.6886 11.2969 30.0414 11.2969ZM18.8279 21.3385H18.117C14.2861 21.3385 11.13 18.2398 11.13 14.3516V13.6406H11.8409C15.6719 13.6406 18.8279 16.7395 18.8279 20.6276V21.3385ZM28.8696 14.3516C28.8696 18.244 25.7096 21.3385 21.8825 21.3385H21.1717V20.6276C21.1717 16.7354 24.3315 13.6406 28.1587 13.6406H28.8696V14.3516H28.8696Z" fill="#0FC057"/>
<path d="M28.7865 0C25.7458 0 21.9091 1.4607 20 4.5425C18.0908 1.46031 14.2518 0 11.2135 0C5.95984 0 0 3.77742 0 12.4688C0 26.8186 16.3563 38.1023 19.4203 39.8466C19.6 39.9488 19.8 40 20 40C20.2 40 20.4 39.9488 20.5797 39.8466C23.5573 38.1516 40 26.8955 40 12.4688C40 3.99719 34.257 0 28.7865 0V0ZM20 37.4411C16.8453 35.3858 2.34375 25.2393 2.34375 12.4688C2.34375 4.28711 8.16352 2.34375 11.2135 2.34375C14.2844 2.34375 18.8281 4.36492 18.8281 8.70312C18.8281 9.35031 19.3528 9.875 20 9.875C20.6472 9.875 21.1719 9.35031 21.1719 8.70312C21.1719 4.36492 25.7156 2.34375 28.7865 2.34375C31.8372 2.34375 37.6562 4.28766 37.6562 12.4688C37.6562 25.2393 23.1547 35.3858 20 37.4411Z" fill="#0FC057"/>
</svg>
