<svg width="37" height="37" viewBox="0 0 37 37" fill="none" xmlns="http://www.w3.org/2000/svg">
<path d="M18.5 37C28.7173 37 37 28.7173 37 18.5C37 8.28273 28.7173 0 18.5 0C8.28273 0 0 8.28273 0 18.5C0 28.7173 8.28273 37 18.5 37Z" fill="#003473"/>
<path d="M18.0158 24.0674C19.6248 22.615 20.6402 20.5062 20.6402 18.164C20.6402 15.8212 19.6245 13.7136 18.0158 12.2451C16.6098 10.9648 14.7367 10.1836 12.675 10.1836C8.27161 10.1836 4.69434 13.7602 4.69434 18.1636C4.69434 22.5682 8.27161 26.1285 12.675 26.1285C14.7368 26.1289 16.6098 25.3483 18.0158 24.0674Z" fill="#009DDD"/>
<path d="M18.0156 24.0674C19.6246 22.615 20.64 20.5062 20.64 18.164C20.64 15.8212 19.6243 13.7136 18.0156 12.2451V24.0674Z" fill="#009DDD"/>
<path d="M23.3732 10.1836C21.3112 10.1836 19.4369 10.9648 18.0158 12.2451C17.7351 12.5104 17.4699 12.7916 17.2192 13.089H18.8276C19.0467 13.3537 19.2497 13.651 19.4369 13.9318H16.6098C16.4386 14.213 16.2823 14.4946 16.1412 14.7751H19.8897C20.0153 15.0559 20.1395 15.338 20.2332 15.6187H15.8147C15.7206 15.8998 15.6423 16.1816 15.5801 16.4776H20.4678C20.5768 17.0087 20.6402 17.5868 20.6402 18.164C20.6402 19.0386 20.4988 19.8979 20.2333 20.6942H15.8148C15.9077 20.975 16.0172 21.2566 16.1416 21.5376H19.8901C19.7499 21.8189 19.6088 22.1154 19.437 22.381H16.6099C16.7983 22.6778 17.0008 22.9588 17.2192 23.2244H18.8276C18.5782 23.5212 18.3123 23.8025 18.0158 24.0678C19.437 25.3487 21.3112 26.1292 23.3732 26.1292C27.7772 26.1292 31.3381 22.5689 31.3381 18.1643C31.3377 13.7603 27.7772 10.1836 23.3732 10.1836Z" fill="#ED1C2E"/>
<path d="M28.5889 19.8816C28.5889 19.7407 28.7145 19.6318 28.8547 19.6318C28.9955 19.6318 29.1044 19.7408 29.1044 19.8816C29.1044 20.0226 28.9955 20.1474 28.8547 20.1474C28.7145 20.1474 28.5889 20.0226 28.5889 19.8816ZM28.8547 20.0849C28.9637 20.0849 29.0419 19.9911 29.0419 19.8816C29.0419 19.7724 28.9636 19.6941 28.8547 19.6941C28.7452 19.6941 28.6523 19.7724 28.6523 19.8816C28.6523 19.9911 28.7452 20.0849 28.8547 20.0849ZM28.8234 19.9911H28.7612V19.7723H28.8546C28.8853 19.7723 28.9014 19.7723 28.9174 19.788C28.9328 19.8035 28.9481 19.8187 28.9481 19.8348C28.9481 19.8663 28.9326 19.8976 28.9013 19.8976L28.9481 19.991H28.8853L28.8546 19.9127H28.8234V19.9911ZM28.8234 19.8664H28.8546C28.8546 19.8664 28.8701 19.8664 28.8853 19.8664C28.8853 19.8664 28.8853 19.8503 28.8853 19.8348V19.8187C28.8698 19.8187 28.8546 19.8187 28.8392 19.8187H28.8231V19.8664H28.8234Z" fill="white"/>
<path d="M11.6756 20.1472H10.6765L11.2698 17.0394L9.91144 20.1472H9.00475L8.849 17.0548L8.25576 20.1472H7.34961L8.11523 16.1025H9.6763L9.75429 18.6007L10.8489 16.1025H12.4558L11.6756 20.1472Z" fill="white"/>
<path d="M22.7638 20.1004C22.4825 20.1779 22.2794 20.2091 22.0448 20.2091C21.5456 20.2091 21.2637 19.9594 21.2637 19.4913C21.2637 19.3973 21.2798 19.3032 21.2949 19.194L21.3571 18.8659L21.4051 18.6165L21.8575 16.1025H22.8411L22.7012 16.8515H23.2159L23.0757 17.6487H22.5605L22.3107 19.0225C22.2947 19.0851 22.2795 19.1321 22.2795 19.1631C22.2795 19.3351 22.389 19.4125 22.6236 19.4125C22.7326 19.4125 22.8255 19.397 22.8889 19.3815L22.7638 20.1004Z" fill="white"/>
<path d="M25.6526 16.8832C25.5743 16.8513 25.5592 16.8513 25.5437 16.8513C25.4963 16.8352 25.4654 16.8352 25.4654 16.8203C25.4335 16.8203 25.4026 16.8203 25.3564 16.8203C25.0277 16.8203 24.7937 16.9608 24.4967 17.3508L24.5901 16.8513H23.684L23.0752 20.1467H24.0748C24.4338 18.1313 24.5746 17.7726 25.0584 17.7726C25.0896 17.7726 25.1372 17.7884 25.1834 17.7884L25.293 17.8194L25.6526 16.8832Z" fill="white"/>
<path d="M18.8279 17.8978C18.8279 18.3041 19.0625 18.6006 19.5935 18.8042C19.9998 18.9754 20.0624 19.0227 20.0624 19.179C20.0624 19.3818 19.8745 19.4759 19.4843 19.4759C19.1874 19.4759 18.9058 19.4289 18.5781 19.3356L18.4531 20.101H18.5004L18.6716 20.1474C18.7339 20.1474 18.8273 20.1632 18.9369 20.1632C19.1715 20.1939 19.359 20.1939 19.4996 20.1939C20.5459 20.1939 21.0457 19.8503 21.0457 19.101C21.0457 18.6479 20.8427 18.3827 20.3274 18.1797C19.9053 18.0234 19.8588 17.9766 19.8588 17.8204C19.8588 17.6492 20.0306 17.5551 20.3586 17.5551C20.5458 17.5551 20.8266 17.5712 21.0764 17.6016L21.2172 16.8523C20.952 16.8061 20.5617 16.79 20.3426 16.79C19.2187 16.7895 18.8279 17.289 18.8279 17.8978Z" fill="white"/>
<path d="M14.8928 20.1476H14.0804L14.0965 19.8035C13.8467 20.0693 13.5032 20.1941 13.0501 20.1941C12.5197 20.1941 12.1445 19.835 12.1445 19.304C12.1445 18.5071 12.784 18.0388 13.8937 18.0388C14.0021 18.0388 14.1432 18.0388 14.2995 18.0549C14.3307 17.9457 14.3307 17.8983 14.3307 17.8519C14.3307 17.6333 14.1583 17.555 13.6901 17.555C13.4088 17.555 13.0974 17.5863 12.8783 17.6333L12.7381 17.6803L12.644 17.6956L12.7842 16.9618C13.2847 16.8362 13.5966 16.79 13.972 16.79C14.8302 16.79 15.2678 17.1175 15.2678 17.742C15.2678 17.9141 15.2524 18.0391 15.1902 18.3984L14.9871 19.5698L14.9559 19.7726L14.924 19.945L14.9086 20.0536L14.8928 20.1476ZM14.1745 18.6791C14.0643 18.6637 14.0182 18.6637 13.956 18.6637C13.3933 18.6637 13.1126 18.8354 13.1126 19.1638C13.1126 19.3665 13.237 19.5073 13.4555 19.5073C13.8625 19.5073 14.1587 19.1638 14.1745 18.6791Z" fill="white"/>
<path d="M18.1556 20.0691C17.8126 20.1629 17.4846 20.2093 17.1405 20.2093C16.0331 20.2093 15.4541 19.6938 15.4541 18.7256C15.4541 17.601 16.1885 16.7734 17.1881 16.7734C17.9999 16.7734 18.5164 17.242 18.5164 17.9603C18.5164 18.2098 18.4845 18.4452 18.4068 18.7727H16.4225C16.4225 18.8349 16.4225 18.8504 16.4225 18.8822C16.4225 19.257 16.7038 19.4598 17.2816 19.4598C17.6409 19.4598 17.9687 19.3976 18.3119 19.2574L18.1556 20.0691ZM17.6251 18.1175C17.6251 18.0547 17.6251 17.9919 17.6251 17.9454C17.6251 17.6801 17.4527 17.5233 17.1566 17.5233C16.844 17.5233 16.6254 17.7418 16.5311 18.1175H17.6251Z" fill="white"/>
<path d="M28.7446 18.6484C28.5883 19.7409 27.8233 20.2252 26.8076 20.2252C25.6996 20.2252 25.2471 19.5542 25.2471 18.7109C25.2471 17.5551 26.0115 16.7578 27.1984 16.7578C28.2293 16.7578 28.7759 17.4139 28.7759 18.2417C28.7762 18.446 28.7762 18.4612 28.7446 18.6484ZM27.7143 18.2263C27.7143 17.8828 27.5734 17.5714 27.1683 17.5714C26.6674 17.5714 26.3554 18.1641 26.3554 18.6954C26.3554 19.133 26.5745 19.4295 26.9181 19.4295C27.1366 19.4295 27.6051 19.133 27.6831 18.6332C27.7143 18.5076 27.7143 18.3677 27.7143 18.2263Z" fill="white"/>
</svg>
