<svg width="40" height="40" viewBox="0 0 40 40" fill="none" xmlns="http://www.w3.org/2000/svg">
<g clip-path="url(#clip0)">
<path d="M39.785 17.101C39.7058 16.5709 39.2773 16.1621 38.7441 16.108L37.0104 15.9322C36.5839 14.1316 35.8779 12.4279 34.9037 10.8484L36.0073 9.4949C36.3468 9.07857 36.3597 8.48482 36.0387 8.05412C34.8797 6.49881 33.5029 5.12131 31.9468 3.95998C31.5157 3.63834 30.9211 3.65131 30.5045 3.99154L29.1529 5.09553C27.5716 4.12115 25.8669 3.41428 24.0664 2.98639L23.8895 1.25139C23.835 0.717324 23.4246 0.288496 22.8934 0.210762C20.9736 -0.0702539 19.0267 -0.0702539 17.1068 0.210762C16.5757 0.288496 16.1652 0.717324 16.1107 1.25139L15.9339 2.98639C14.1333 3.41428 12.4286 4.12115 10.8473 5.09553L9.49574 3.99154C9.07926 3.65131 8.48465 3.63834 8.05348 3.95998C6.4973 5.12139 5.12059 6.49889 3.96152 8.05412C3.64059 8.48482 3.65348 9.07865 3.99293 9.4949L5.09652 10.8484C4.12238 12.4279 3.41637 14.1315 2.9898 15.9322L1.25613 16.108C0.72293 16.1621 0.294414 16.5709 0.215273 17.101C-0.0717578 19.0247 -0.0717578 20.9754 0.215273 22.899C0.294414 23.4291 0.72293 23.8379 1.25613 23.892L2.9898 24.0678C3.41637 25.8684 4.12238 27.5721 5.09652 29.1516L3.99316 30.5051C3.65363 30.9215 3.64074 31.5152 3.96176 31.9459C5.12082 33.5012 6.49754 34.8787 8.05371 36.0401C8.48481 36.3617 9.07941 36.3487 9.49598 36.0085L10.8475 34.9045C12.4289 35.8789 14.1336 36.5858 15.9341 37.0137L16.111 38.7487C16.1654 39.2827 16.5759 39.7115 17.1071 39.7893C19.6766 40.1654 21.7535 39.9562 22.8936 39.7893C23.4248 39.7115 23.8353 39.2827 23.8897 38.7487L24.0666 37.0137C25.8671 36.5858 27.5718 35.8789 29.1532 34.9045L30.5047 36.0085C30.9213 36.3487 31.5159 36.3618 31.947 36.0401C33.5032 34.8787 34.8799 33.5012 36.0389 31.9459C36.3599 31.5152 36.347 30.9214 36.0075 30.5051L34.9039 29.1516C35.8781 27.5722 36.5841 25.8684 37.0107 24.0678L38.7443 23.892C39.2775 23.8379 39.7061 23.4291 39.7852 22.899C40.0719 20.9754 40.0719 19.0247 39.785 17.101ZM37.5771 21.6545L35.9222 21.8223C35.4038 21.8749 34.9824 22.2634 34.8879 22.7758C34.5036 24.8621 33.6965 26.8097 32.4893 28.5648C32.1943 28.9938 32.2176 29.566 32.5466 29.9695L33.5983 31.2594C32.8936 32.1105 32.1111 32.8933 31.2599 33.5992L29.9728 32.5479C29.5695 32.2184 28.997 32.1946 28.568 32.4895C26.8096 33.6973 24.8602 34.5056 22.7739 34.8919C22.2622 34.9867 21.8743 35.4076 21.8215 35.9254L21.653 37.5786C20.5535 37.6821 19.4471 37.6821 18.3475 37.5786L18.179 35.9254C18.1262 35.4076 17.7382 34.9867 17.2266 34.8919C15.1404 34.5056 13.191 33.6972 11.4325 32.4895C11.0032 32.1946 10.431 32.2185 10.0278 32.5479L8.74066 33.5992C7.88949 32.8933 7.10691 32.1105 6.40223 31.2594L7.45395 29.9695C7.78301 29.566 7.80637 28.9938 7.51121 28.5648C6.30402 26.8097 5.49699 24.8619 5.11262 22.7758C5.01816 22.2633 4.59676 21.8748 4.07832 21.8222L2.42348 21.6544C2.31762 20.5535 2.31762 19.4463 2.42348 18.3454L4.07832 18.1776C4.59676 18.125 5.01816 17.7365 5.11262 17.224C5.49699 15.1378 6.30402 13.1901 7.51121 11.4351C7.80629 11.0061 7.78293 10.4339 7.45395 10.0304L6.40223 8.74045C7.10691 7.88943 7.88949 7.10654 8.74066 6.40068L10.0278 7.45201C10.431 7.78139 11.0034 7.80521 11.4325 7.51037C13.191 6.30256 15.1404 5.49428 17.2266 5.10795C17.7383 5.01318 18.1263 4.59225 18.179 4.07451L18.3475 2.42131C19.4471 2.31779 20.5535 2.31779 21.653 2.42131L21.8215 4.07451C21.8743 4.59225 22.2623 5.01318 22.7739 5.10795C24.8602 5.49428 26.8096 6.30264 28.568 7.51037C28.9972 7.80529 29.5695 7.78131 29.9728 7.45201L31.2599 6.40068C32.1111 7.10654 32.8936 7.88943 33.5983 8.74045L32.5466 10.0304C32.2175 10.4339 32.1942 11.0061 32.4893 11.4351C33.6965 13.1902 34.5036 15.1379 34.8879 17.2241C34.9824 17.7365 35.4038 18.1251 35.9222 18.1776L37.5771 18.3454C37.683 19.4464 37.683 20.5536 37.5771 21.6545Z" fill="#0FC057"/>
<path d="M20.001 7.53125C13.1257 7.53125 7.53223 13.1247 7.53223 20C7.53223 26.8753 13.1257 32.4688 20.001 32.4688C26.8763 32.4688 32.4697 26.8753 32.4697 20C32.4697 13.1247 26.8763 7.53125 20.001 7.53125ZM20.001 30.125C14.418 30.125 9.87598 25.583 9.87598 20C9.87598 14.417 14.418 9.875 20.001 9.875C25.5839 9.875 30.126 14.417 30.126 20C30.126 25.583 25.5839 30.125 20.001 30.125Z" fill="#0FC057"/>
<path d="M25.0211 13.8071H20.6279C17.5593 13.8071 15.0628 16.3036 15.0628 19.3722V23.28L14.1509 24.192C13.6932 24.6496 13.6932 25.3916 14.1509 25.8492C14.6084 26.3069 15.3505 26.3069 15.8081 25.8492L16.7201 24.9373H20.628C23.6966 24.9373 26.193 22.4408 26.193 19.3722V14.979C26.193 14.3318 25.6683 13.8071 25.0211 13.8071ZM23.8492 19.3723C23.8492 21.1485 22.4041 22.5936 20.6279 22.5936H19.0637L21.4565 20.2009C21.9141 19.7432 21.9141 19.0013 21.4565 18.5436C20.9989 18.086 20.2569 18.086 19.7992 18.5436L17.4065 20.9363V19.3722C17.4065 17.596 18.8516 16.1509 20.6278 16.1509H23.8491V19.3723H23.8492Z" fill="#0FC057"/>
</g>
<defs>
<clipPath id="clip0">
<rect width="40" height="40" fill="white"/>
</clipPath>
</defs>
</svg>
