<svg width="16" height="16" viewBox="0 0 16 16" fill="none" xmlns="http://www.w3.org/2000/svg">
<g clip-path="url(#clip0)">
<path d="M15.6889 12.7226L13.9151 11.54L12.3383 10.4889C12.034 10.2865 11.625 10.3529 11.4004 10.6412L10.4246 11.8956C10.2151 12.1677 9.83803 12.246 9.53747 12.0796C8.87541 11.7113 8.09252 11.3645 6.3651 9.6349C4.63768 7.90526 4.28872 7.12458 3.92044 6.46252C3.75404 6.16196 3.83225 5.78494 4.10444 5.57538L5.35877 4.59967C5.64711 4.37505 5.71351 3.96608 5.51105 3.66174L4.49231 2.13348L3.27742 0.311122C3.07064 0.000938137 2.6567 -0.0921859 2.33702 0.0995308L0.935911 0.940084C0.55726 1.16318 0.278919 1.52342 0.158545 1.94614C-0.224606 3.34309 -0.301855 6.42471 4.63684 11.3634C9.57553 16.3021 12.6569 16.2246 14.0538 15.8414C14.4765 15.7211 14.8368 15.4427 15.0599 15.0641L15.9004 13.663C16.0922 13.3433 15.999 12.9294 15.6889 12.7226Z"/>
<path d="M9.10299 2.48238C11.6918 2.48525 13.7897 4.58316 13.7926 7.17198C13.7926 7.32432 13.9161 7.44785 14.0685 7.44785C14.2208 7.44785 14.3443 7.32435 14.3443 7.17198C14.3411 4.27861 11.9964 1.93385 9.10302 1.93066C8.95068 1.93066 8.82715 2.05416 8.82715 2.20654C8.82712 2.35885 8.95062 2.48238 9.10299 2.48238Z" />
<path d="M9.10302 4.13768C10.7781 4.13965 12.1355 5.49707 12.1375 7.17212C12.1375 7.32446 12.261 7.44799 12.4133 7.44799C12.5657 7.44799 12.6892 7.32449 12.6892 7.17212C12.6869 5.19248 11.0827 3.58822 9.10302 3.58594C8.95068 3.58594 8.82715 3.70944 8.82715 3.86181C8.82715 4.01418 8.95065 4.13768 9.10302 4.13768Z" />
<path d="M9.10299 5.79292C9.86439 5.79383 10.4814 6.41082 10.4823 7.17222C10.4823 7.32456 10.6058 7.44809 10.7582 7.44809C10.9105 7.44809 11.034 7.32459 11.034 7.17222C11.0328 6.10626 10.169 5.24243 9.10302 5.24121C8.95068 5.24121 8.82715 5.36471 8.82715 5.51708C8.82712 5.66942 8.95062 5.79292 9.10299 5.79292Z" />
</g>
<defs>
<clipPath id="clip0">
<rect width="16" height="16" fill="white"/>
</clipPath>
</defs>
</svg>
