<svg width="37" height="37" viewBox="0 0 37 37" fill="none" xmlns="http://www.w3.org/2000/svg">
<path d="M18.5 37C28.7173 37 37 28.7173 37 18.5C37 8.28273 28.7173 0 18.5 0C8.28273 0 0 8.28273 0 18.5C0 28.7173 8.28273 37 18.5 37Z" fill="#3C80AD"/>
<path d="M12.4519 9.52051C7.78361 9.55002 4.00391 13.3563 4.00391 18.0412C4.00391 22.7445 7.81281 26.5613 12.5065 26.5613C14.7082 26.5613 16.7162 25.7203 18.227 24.3413L18.2267 24.341H18.2278C18.5378 24.0585 18.8264 23.7529 19.0914 23.4284H17.3498C17.117 23.1471 16.9055 22.8532 16.7156 22.5503H19.7195C19.903 22.2576 20.0677 21.9535 20.2152 21.6386H16.2203C16.0839 21.3459 15.9656 21.0476 15.8648 20.7435H20.5708C20.855 19.8941 21.0083 18.985 21.0083 18.0412C21.0083 17.4143 20.9403 16.8043 20.8126 16.216H15.615C15.6799 15.9131 15.7608 15.6143 15.8572 15.3213H20.5655C20.4604 15.0087 20.338 14.7046 20.1989 14.409H16.2197C16.3632 14.1014 16.5259 13.8031 16.7073 13.5139H19.7093C19.5093 13.1946 19.2884 12.8897 19.0497 12.6022H17.3759C17.6351 12.2963 17.9195 12.0086 18.2283 11.742C16.7181 10.3623 14.7098 9.52074 12.5069 9.52074C12.4878 9.52051 12.4697 9.52051 12.4519 9.52051Z" fill="#931B1D"/>
<path d="M32.4134 18.0438C32.4143 22.749 28.6098 26.5643 23.9129 26.5657C19.218 26.5672 15.4106 22.7533 15.4092 18.0474V18.0438C15.4077 13.3373 19.2134 9.52168 23.9092 9.52051C28.6046 9.51879 32.4123 13.3329 32.4135 18.0392C32.4134 18.0392 32.4134 18.0413 32.4134 18.0438Z" fill="#F16622"/>
<path d="M32.4134 18.138C32.4143 22.8434 28.6098 26.6593 23.9129 26.6602C19.218 26.6619 15.4106 22.8475 15.4092 18.1424V18.138C15.4077 13.4323 19.2134 9.61641 23.9092 9.61523C28.6046 9.61352 32.4123 13.4277 32.4135 18.1336C32.4134 18.1336 32.4134 18.1363 32.4134 18.138Z" fill="#F7981D"/>
<path d="M12.4519 9.61727C7.78361 9.64732 4.00391 13.4527 4.00391 18.1379C4.00391 22.8416 7.81281 26.6586 12.5065 26.6586C14.7082 26.6586 16.7162 25.817 18.227 24.4383L18.2267 24.4374H18.2278C18.5378 24.1552 18.8264 23.8506 19.0914 23.5249H17.3498C17.117 23.2441 16.9055 22.9508 16.7156 22.6479H19.7195C19.903 22.3549 20.0677 22.05 20.2152 21.7354H16.2203C16.0839 21.4424 15.9656 21.1441 15.8648 20.8406H20.5708C20.855 19.9905 21.0083 19.0818 21.0083 18.1379C21.0083 17.5114 20.9403 16.9011 20.8126 16.3131H15.615C15.6799 16.0105 15.7608 15.711 15.8572 15.4183H20.5655C20.4604 15.1055 20.338 14.8014 20.1989 14.5055H16.2197C16.3632 14.1991 16.5259 13.8997 16.7073 13.6107H19.7093C19.5093 13.2917 19.2884 12.987 19.0497 12.6984H17.3759C17.6351 12.3932 17.9195 12.1054 18.2283 11.8382C16.7181 10.4588 14.7098 9.61719 12.5069 9.61719C12.4878 9.61727 12.4697 9.61727 12.4519 9.61727Z" fill="#CB2026"/>
<path d="M15.5638 20.3077L15.6774 19.5368C15.6155 19.5368 15.5243 19.5631 15.444 19.5631C15.1291 19.5631 15.094 19.3954 15.1145 19.2713L15.3689 17.6977H15.8477L15.9634 16.8444H15.5121L15.6041 16.3145H14.6986C14.679 16.3343 14.1641 19.2978 14.1641 19.658C14.1641 20.1923 14.4629 20.4303 14.8853 20.4268C15.2153 20.4238 15.4732 20.3323 15.5638 20.3077Z" fill="white"/>
<path d="M15.8506 18.8367C15.8506 20.1188 16.6945 20.4237 17.414 20.4237C18.0783 20.4237 18.3701 20.2745 18.3701 20.2745L18.5299 19.3993C18.5299 19.3993 18.0249 19.6237 17.5686 19.6237C16.5967 19.6237 16.767 18.8969 16.767 18.8969H18.607C18.607 18.8969 18.7253 18.3086 18.7253 18.0691C18.7253 17.4717 18.428 16.7432 17.4344 16.7432C16.5239 16.7434 15.8506 17.7257 15.8506 18.8367ZM17.4383 17.5552C17.9489 17.5552 17.8545 18.1306 17.8545 18.1771H16.8496C16.8493 18.1178 16.9443 17.5552 17.4383 17.5552Z" fill="white"/>
<path d="M23.17 20.3073L23.3322 19.3173C23.3322 19.3173 22.8879 19.5417 22.5832 19.5417C21.9411 19.5417 21.6837 19.0492 21.6837 18.5222C21.6837 17.4507 22.2362 16.8612 22.8517 16.8612C23.3127 16.8612 23.683 17.1212 23.683 17.1212L23.8306 16.1607C23.8306 16.1607 23.2817 15.9375 22.8114 15.9375C21.7662 15.9375 20.749 16.8451 20.749 18.5528C20.749 19.6833 21.2985 20.4314 22.3787 20.4314C22.6839 20.4315 23.17 20.3073 23.17 20.3073Z" fill="white"/>
<path d="M10.5853 16.7578C9.96459 16.7578 9.48868 16.9574 9.48868 16.9574L9.35752 17.7391C9.35752 17.7391 9.75068 17.5796 10.344 17.5796C10.6811 17.5796 10.9273 17.6173 10.9273 17.8922C10.9273 18.0587 10.8973 18.1203 10.8973 18.1203C10.8973 18.1203 10.6318 18.0978 10.5085 18.0978C9.72593 18.0978 8.90332 18.4325 8.90332 19.4427C8.90332 20.2378 9.44254 20.4206 9.77707 20.4206C10.4159 20.4206 10.6905 20.0055 10.7057 20.0038L10.6759 20.3508H11.4728L11.8286 17.8517C11.8286 16.7919 10.9057 16.7578 10.5853 16.7578ZM10.7795 18.7915C10.7968 18.9443 10.6838 19.6599 10.1387 19.6599C9.85763 19.6599 9.78433 19.4444 9.78433 19.317C9.78433 19.069 9.91899 18.7707 10.5827 18.7707C10.7366 18.7707 10.7532 18.7877 10.7795 18.7915Z" fill="white"/>
<path d="M12.6749 20.4017C12.8785 20.4017 14.044 20.454 14.044 19.2487C14.044 18.1217 12.9653 18.344 12.9653 17.8912C12.9653 17.6666 13.1412 17.5947 13.4624 17.5947C13.5901 17.5947 14.0811 17.6359 14.0811 17.6359L14.1956 16.8344C14.1956 16.8344 13.8778 16.7637 13.3608 16.7637C12.6904 16.7637 12.0112 17.0307 12.0112 17.9476C12.0112 18.9872 13.1446 18.8821 13.1446 19.3196C13.1446 19.6118 12.8276 19.6357 12.5834 19.6357C12.1616 19.6357 11.7816 19.4905 11.7798 19.4973L11.6592 20.2897C11.6803 20.2972 11.9151 20.4017 12.6749 20.4017Z" fill="white"/>
<path d="M30.669 16.0391L30.4741 17.2531C30.4741 17.2531 30.1332 16.782 29.6001 16.782C28.7702 16.782 28.0791 17.7839 28.0791 18.9357C28.0791 19.6792 28.4474 20.4069 29.2017 20.4069C29.7442 20.4069 30.0442 20.028 30.0442 20.028L30.0048 20.3514H30.8852L31.5772 16.0371L30.669 16.0391ZM30.2489 18.4073C30.2489 18.8861 30.0117 19.5255 29.5212 19.5255C29.1952 19.5255 29.043 19.2515 29.043 18.8214C29.043 18.1186 29.358 17.6535 29.7552 17.6535C30.0815 17.6536 30.2489 17.8785 30.2489 18.4073Z" fill="white"/>
<path d="M5.68281 20.3551L6.2346 17.098L6.31494 20.3551H6.93886L8.10233 17.098L7.58676 20.3551H8.51336L9.22761 16.0361H7.79427L6.90186 18.6856L6.85541 16.0361H5.53471L4.81055 20.3551H5.68281Z" fill="white"/>
<path d="M19.6307 20.3608C19.8942 18.8596 19.943 17.64 20.5722 17.8624C20.6824 17.2816 20.7884 17.057 20.9082 16.8108C20.9082 16.8108 20.8521 16.7988 20.7335 16.7988C20.3289 16.7988 20.0283 17.3538 20.0283 17.3538L20.1083 16.8443H19.2652L18.7012 20.3608H19.6307Z" fill="white"/>
<path d="M25.2591 16.7578C24.6384 16.7578 24.1628 16.9574 24.1628 16.9574L24.032 17.7391C24.032 17.7391 24.4243 17.5796 25.0181 17.5796C25.3549 17.5796 25.6018 17.6173 25.6018 17.8922C25.6018 18.0587 25.5714 18.1203 25.5714 18.1203C25.5714 18.1203 25.3059 18.0978 25.1817 18.0978C24.3988 18.0978 23.5771 18.4325 23.5771 19.4427C23.5771 20.2378 24.1167 20.4206 24.4509 20.4206C25.0897 20.4206 25.3646 20.0055 25.3792 20.0038L25.3497 20.3508H26.1472L26.5027 17.8517C26.503 16.7919 25.5805 16.7578 25.2591 16.7578ZM25.4537 18.7915C25.4709 18.9443 25.3585 19.6599 24.8125 19.6599C24.5318 19.6599 24.459 19.4444 24.459 19.317C24.459 19.069 24.5937 18.7707 25.2562 18.7707C25.4111 18.7707 25.4272 18.7877 25.4537 18.7915Z" fill="white"/>
<path d="M27.2302 20.3608C27.494 18.8596 27.5428 17.64 28.1719 17.8624C28.2821 17.2816 28.3881 17.057 28.5085 16.8108C28.5085 16.8108 28.4515 16.7988 28.3335 16.7988C27.9278 16.7988 27.6281 17.3538 27.6281 17.3538L27.7088 16.8443H26.8651L26.3008 20.3606H27.2303L27.2302 20.3608Z" fill="white"/>
</svg>
