<svg width="19" height="19" viewBox="0 0 19 19" fill="none" xmlns="http://www.w3.org/2000/svg">
<g clip-path="url(#clip0)">
<path d="M18.5851 13.6376C18.5354 13.5544 18.2278 12.886 16.7477 11.5123C15.1982 10.0738 15.4063 10.3074 17.2727 7.82012C18.4093 6.30532 18.8638 5.38025 18.7216 4.98478C18.5863 4.60781 17.7502 4.70726 17.7502 4.70726L14.9704 4.72345C14.9704 4.72345 14.7646 4.6957 14.6108 4.78705C14.4616 4.87724 14.3656 5.08538 14.3656 5.08538C14.3656 5.08538 13.9251 6.25791 13.3377 7.25467C12.0992 9.35804 11.6032 9.46905 11.4008 9.33839C10.9302 9.03427 11.0481 8.11498 11.0481 7.46281C11.0481 5.42419 11.3569 4.57428 10.4457 4.35458C10.1427 4.28173 9.92069 4.23316 9.1471 4.22507C8.15496 4.21466 7.31431 4.22854 6.83905 4.46096C6.52222 4.61591 6.27823 4.96165 6.4274 4.98131C6.61126 5.00559 7.02754 5.09348 7.2484 5.39412C7.53401 5.7815 7.5236 6.65337 7.5236 6.65337C7.5236 6.65337 7.6878 9.05277 7.14086 9.3511C6.76505 9.55578 6.25048 9.13834 5.14618 7.22923C4.58073 6.25212 4.15289 5.17095 4.15289 5.17095C4.15289 5.17095 4.07079 4.96975 3.92393 4.86221C3.74586 4.73154 3.49609 4.68991 3.49609 4.68991L0.852709 4.7061C0.852709 4.7061 0.456086 4.71767 0.310388 4.88996C0.180878 5.04375 0.299981 5.36059 0.299981 5.36059C0.299981 5.36059 2.36982 10.2022 4.71255 12.6432C6.86218 14.8807 9.30205 14.7338 9.30205 14.7338H10.4075C10.4075 14.7338 10.7417 14.6968 10.9117 14.513C11.0689 14.3442 11.0631 14.0273 11.0631 14.0273C11.0631 14.0273 11.0412 12.5437 11.7304 12.3252C12.4091 12.1101 13.281 13.7591 14.2049 14.3939C14.9033 14.8738 15.4341 14.7685 15.4341 14.7685L17.9052 14.7338C17.9052 14.7338 19.198 14.6541 18.5851 13.6376Z" fill="#81B03F"/>
</g>
<defs>
<clipPath id="clip0">
<rect width="18.5" height="18.5" fill="white" transform="translate(0.25 0.25)"/>
</clipPath>
</defs>
</svg>
