<svg width="19" height="19" viewBox="0 0 19 19" fill="none" xmlns="http://www.w3.org/2000/svg">
<path d="M11.1699 9.5C11.1699 10.4222 10.4222 11.1699 9.5 11.1699C8.57777 11.1699 7.83008 10.4222 7.83008 9.5C7.83008 8.57777 8.57777 7.83008 9.5 7.83008C10.4222 7.83008 11.1699 8.57777 11.1699 9.5Z" fill="#81B03F"/>
<path d="M12.3203 4.45312H6.67969C5.45189 4.45312 4.45312 5.45189 4.45312 6.67969V12.3203C4.45312 13.5481 5.45189 14.5469 6.67969 14.5469H12.3203C13.5481 14.5469 14.5469 13.5481 14.5469 12.3203V6.67969C14.5469 5.45189 13.5481 4.45312 12.3203 4.45312ZM9.5 12.2832C7.96532 12.2832 6.7168 11.0347 6.7168 9.5C6.7168 7.96532 7.96532 6.7168 9.5 6.7168C11.0347 6.7168 12.2832 7.96532 12.2832 9.5C12.2832 11.0347 11.0347 12.2832 9.5 12.2832ZM12.6914 6.86523C12.3839 6.86523 12.1348 6.61605 12.1348 6.30859C12.1348 6.00114 12.3839 5.75195 12.6914 5.75195C12.9989 5.75195 13.248 6.00114 13.248 6.30859C13.248 6.61605 12.9989 6.86523 12.6914 6.86523Z" fill="#81B03F"/>
<path d="M13.9902 0H5.00977C2.24744 0 0 2.24744 0 5.00977V13.9902C0 16.7526 2.24744 19 5.00977 19H13.9902C16.7526 19 19 16.7526 19 13.9902V5.00977C19 2.24744 16.7526 0 13.9902 0ZM15.6602 12.3203C15.6602 14.1619 14.1619 15.6602 12.3203 15.6602H6.67969C4.83813 15.6602 3.33984 14.1619 3.33984 12.3203V6.67969C3.33984 4.83813 4.83813 3.33984 6.67969 3.33984H12.3203C14.1619 3.33984 15.6602 4.83813 15.6602 6.67969V12.3203Z" fill="#81B03F"/>
</svg>
