<svg width="37" height="37" viewBox="0 0 37 37" fill="none" xmlns="http://www.w3.org/2000/svg">
<g clip-path="url(#clip0)">
<path d="M18.5002 37.0004C28.717 37.0004 36.9994 28.718 36.9994 18.5012C36.9994 8.28434 28.717 0.00195312 18.5002 0.00195312C8.28336 0.00195312 0.000976562 8.28434 0.000976562 18.5012C0.000976562 28.718 8.28336 37.0004 18.5002 37.0004Z" fill="#F3F2F2"/>
<path d="M13.6982 22.0492L15.1138 13.6904H17.4056L15.9901 22.0492H13.6982Z" fill="#293688"/>
<path d="M24.1499 13.9065C23.6957 13.7371 22.9842 13.5557 22.0955 13.5557C19.8306 13.5557 18.2351 14.6896 18.2214 16.3143C18.2088 17.5151 19.3603 18.1849 20.2302 18.585C21.1222 18.9939 21.4222 19.2563 21.4179 19.6218C21.4123 20.182 20.7051 20.4382 20.0462 20.4382C19.129 20.4379 18.6415 20.3114 17.8887 19.9994L17.5933 19.8663L17.2715 21.7375C17.8069 21.9709 18.7971 22.1733 19.825 22.1836C22.234 22.183 23.7985 21.0631 23.816 19.3277C23.8248 18.3769 23.214 17.6533 21.8916 17.0566C21.0904 16.6704 20.5997 16.4125 20.605 16.0205C20.605 15.6732 21.0206 15.3017 21.9176 15.3017C22.6671 15.29 23.2102 15.4524 23.6334 15.6218L23.8385 15.7182L24.1499 13.9065Z" fill="#293688"/>
<path d="M28.0564 13.6904C27.5072 13.6904 27.1105 13.8581 26.8692 14.4023L23.4727 22.0495H25.8992L26.3709 20.7686H29.27L29.5394 22.0495H31.6966L29.8093 13.6907H28.0564L28.0564 13.6904ZM27.0147 19.0961C27.204 18.6147 27.9276 16.7598 27.9276 16.7598C27.9144 16.7818 28.1159 16.2761 28.2316 15.9624L28.3867 16.6827C28.3867 16.6827 28.8252 18.678 28.9172 19.0963H27.0147V19.0961Z" fill="#293688"/>
<path d="M9.51947 19.4203L9.31759 18.2744C8.89931 16.9386 7.60116 15.4933 6.14648 14.7691L8.17135 22.0492H10.5984L14.2383 13.6904H11.8118L9.51947 19.4203Z" fill="#293688"/>
<path d="M3.65527 13.6904V13.8254C6.53106 14.5171 8.52759 16.2657 9.318 18.2744L8.48699 14.4038C8.34827 13.8748 7.92789 13.7089 7.43045 13.6905L3.65527 13.6904Z" fill="#F7981D"/>
<path d="M18.4987 36.9993C25.6389 36.9993 31.83 32.9519 34.9137 27.0283H2.08398C5.16797 32.9519 11.3588 36.9993 18.4987 36.9993Z" fill="#F7981D"/>
<path d="M18.4986 0C11.4718 0 5.36012 3.91765 2.22852 9.68819H34.7694C31.6374 3.91796 25.5255 0 18.4986 0Z" fill="#293688"/>
</g>
<defs>
<clipPath id="clip0">
<rect width="37" height="37" fill="white"/>
</clipPath>
</defs>
</svg>
