<svg width="89" height="39" viewBox="0 0 89 39" fill="none" xmlns="http://www.w3.org/2000/svg">
<g clip-path="url(#clip0)">
<path d="M35.7437 37.2804C35.5761 36.8184 35.2725 36.5034 35.0526 36.0939C34.5186 35.3904 33.8903 34.7814 33.2621 34.1724C33.0422 34.0989 32.9479 33.8889 32.7385 33.8049C32.6024 33.6264 32.3825 33.5319 32.2045 33.3954C31.8485 33.1224 31.4611 32.8914 31.0632 32.6605C30.3093 32.1775 29.3774 31.873 28.456 31.558C27.4612 31.3165 26.4142 31.138 25.3252 30.991C24.2467 30.8335 23.1682 30.6865 22.3515 30.256C21.8803 30.1195 21.5347 29.857 21.1264 29.647C20.7494 29.395 20.3411 29.185 20.0269 28.87C19.6395 28.639 19.3987 28.2505 19.095 27.9356C18.9903 27.7256 18.8123 27.5996 18.7286 27.3686C18.6239 27.3266 18.5924 27.2006 18.5296 27.1271C18.4563 27.0431 18.4563 26.8751 18.3307 26.8436C18.2679 27.2741 18.2888 27.7886 18.3307 28.2296C18.383 28.4185 18.404 28.6495 18.4563 28.8385C18.4877 29.0065 18.6448 29.2795 18.582 29.4055C15.3151 29.2375 12.9277 28.198 10.8545 26.8331C9.82837 26.1506 8.94882 25.3211 8.1321 24.4286C7.77609 23.9351 7.38867 23.4627 7.07454 22.9167C6.74995 22.3812 6.47771 21.7722 6.18452 21.2052C5.70287 19.9767 5.25262 18.7168 5.08509 17.1733C4.8652 15.7348 4.91755 13.8974 5.24215 12.5639C5.35733 11.8289 5.59816 11.2094 5.80757 10.5689C5.94369 10.2749 6.09029 9.98094 6.21594 9.67645C6.39394 9.42445 6.48818 9.07796 6.70806 8.85747C7.3049 7.73399 8.19492 6.89401 9.10588 6.08553C10.0901 5.36104 11.2105 4.77306 12.5613 4.41606C13.8596 4.12207 15.6292 4.06957 17.0323 4.37406C19.8804 4.96205 22.0269 6.24302 23.8279 7.88099C25.6498 9.48745 27.0529 11.5244 28.0162 14.0024C29.0109 16.3543 29.3565 20.0187 28.4664 22.6857C28.1 22.4757 27.7335 22.2762 27.367 22.0767C26.9272 21.9507 26.4979 21.8037 25.9848 21.7512C25.3671 21.7407 24.7598 21.7512 24.3619 21.9507C25.1681 21.8667 25.8173 22.0872 26.3199 22.2762C26.6131 22.3917 26.7806 22.4652 27.011 22.6017C27.4612 22.8642 27.8591 23.1057 28.1942 23.4627C29.147 24.3026 29.8276 25.4156 30.1522 26.8856C30.1522 26.9276 30.2046 26.9171 30.1941 26.8436C30.236 26.8331 30.2569 26.8016 30.2779 26.7596C30.3302 26.6966 30.3931 26.6336 30.4454 26.5601C30.5501 26.4341 30.6548 26.3081 30.7281 26.1506C30.948 25.8881 31.126 25.5941 31.2936 25.2896C31.681 24.7226 31.9742 24.0716 32.3092 23.4522C32.8851 22.1292 33.3563 20.7012 33.6495 19.0842C34.2359 15.4933 33.5343 12.0914 32.3092 9.58195C31.0527 7.05151 29.2936 5.02505 27.0215 3.50258C24.7283 1.99062 22.0478 0.87764 18.3621 0.772642C18.3411 0.699144 18.3097 0.783142 18.2364 0.772642C16.2889 0.709643 14.7182 0.982637 13.1581 1.38163C12.4356 1.62312 11.6817 1.83312 11.043 2.15861C10.31 2.40011 9.72366 2.7991 9.05353 3.09309C8.8127 3.32409 8.44622 3.43958 8.19492 3.66008C7.87033 3.81758 7.6295 4.06957 7.3049 4.22707C6.78136 4.68906 6.22641 5.09855 5.71334 5.57104C5.21074 6.03303 4.77096 6.55802 4.2893 7.04101C4.21601 7.209 4.09036 7.3245 3.96471 7.4505C3.88094 7.60799 3.77623 7.74449 3.64011 7.85999C3.58776 8.04898 3.42023 8.12248 3.3574 8.31148C3.22128 8.41648 3.18987 8.62647 3.03281 8.72097C2.89669 9.05696 2.65586 9.29846 2.49879 9.61345C2.31032 9.91794 2.16373 10.2539 1.97525 10.5479C1.68207 11.2304 1.36795 11.8919 1.12712 12.6269C0.875817 13.3409 0.6664 14.0969 0.519809 14.9158C0.362746 15.6823 0.216155 16.6798 0.237096 17.4883C0.132388 17.7823 0.216155 18.3283 0.237096 18.6748C0.237096 18.7378 0.195213 18.7588 0.195213 18.8008C0.195213 19.1892 0.299921 19.6617 0.320863 19.9032C0.40463 20.7957 0.561692 21.6252 0.812992 22.3497C0.970054 23.1582 1.30512 23.7881 1.54595 24.5126C1.91243 25.1216 2.16373 25.8461 2.6035 26.3921C2.9281 27.0326 3.38881 27.5366 3.82859 28.0616C4.29978 28.5655 4.77096 29.08 5.33639 29.4895C6.373 30.3925 7.58761 31.117 8.91741 31.7365C11.399 32.9439 15.1057 33.7314 18.4354 33.5319C19.2835 33.4164 20.1421 33.3114 20.917 33.1224C21.629 32.8599 22.4562 32.7025 23.3148 32.5975C25.2728 32.4715 26.9691 32.65 28.4769 33.0909C30.0056 33.5004 31.325 34.1199 32.4663 34.9284C33.0736 35.2854 33.5762 35.7474 34.0893 36.1884C34.6128 36.6399 35.0316 37.1964 35.5133 37.7003C35.5761 37.8893 35.7018 38.0258 35.796 38.1938C35.9217 38.3303 35.8588 38.6453 36.1625 38.6033C36.351 38.4143 36.1311 38.1413 36.1206 37.9103C35.9321 37.7108 35.8902 37.4483 35.7437 37.2804Z" fill="#FCB316"/>
<path d="M28.1411 26.1084C28.0992 26.1084 28.0887 26.1399 28.0573 26.1504C27.984 26.3079 28.0154 26.5599 28.0573 26.7174C28.2772 27.1689 28.3505 27.7569 28.8322 27.9459C29.0625 27.8724 29.0416 27.5364 29.0311 27.2109C28.9264 26.8119 28.7798 26.4549 28.539 26.1924C28.3714 26.1294 28.2563 26.0244 28.1411 26.1084ZM25.293 27.2529C25.293 27.2319 25.2616 27.2109 25.2511 27.2529C24.8532 27.2004 24.7171 27.4209 24.5182 27.5784C24.1726 28.4919 24.7276 29.3843 25.7014 29.3738C26.0888 29.2793 26.3296 29.0273 26.3925 28.5969C26.3401 27.8304 26.0155 27.3369 25.293 27.2529Z" fill="#FCB316"/>
<path d="M48.7694 24.3449C48.9265 25.0063 49.2615 25.4788 49.6385 25.9198C50.0154 26.3608 50.4552 26.7283 50.9892 27.0013C51.4918 27.3163 52.0363 27.5788 52.6645 27.7573C52.9682 27.8623 53.2614 27.9883 53.6383 28.0303C53.9001 28.1773 54.2142 28.2508 54.2352 28.6288C54.2247 29.0802 53.921 29.2482 53.5336 29.3322C53.1462 29.2482 52.6645 29.2587 52.3399 29.1117C51.5232 29.0173 50.8636 28.7548 50.1725 28.5133C48.8532 27.9988 47.7432 27.2533 46.8218 26.3398C46.6333 26.0248 46.3716 25.7728 46.1726 25.4683C45.9737 25.1638 45.8376 24.7963 45.6281 24.4918C44.0156 24.2819 42.9162 23.5469 41.9529 22.6964C41.0629 21.6779 40.3509 20.4599 40.0577 18.843C39.7121 17.289 39.8168 15.3465 40.2252 13.8451C41.1152 10.9366 42.979 9.00468 46.4972 8.74219C47.471 8.77369 48.3191 8.88918 49.094 9.18318C49.8793 9.46667 50.6227 9.99166 51.2091 10.5376C51.2614 10.5796 51.2824 10.5901 51.3138 10.6426C51.4394 10.8211 51.7431 11.0731 51.9106 11.2936C51.942 11.3356 51.9316 11.4091 51.963 11.4616C52.0258 11.5561 52.1201 11.5981 52.1829 11.6821C52.2143 11.7346 52.2038 11.7976 52.2352 11.8396C52.2771 11.9026 52.3295 11.9971 52.3923 12.1126C52.4132 12.1546 52.4865 12.1861 52.497 12.2176C52.5912 12.3961 52.6331 12.6166 52.7169 12.8161C52.8007 13.0261 52.9158 13.2046 52.9891 13.4146C53.1985 14.0341 53.3347 14.7691 53.4184 15.525C53.6278 17.709 53.1985 19.662 52.3923 21.1109C52.0153 21.8669 51.4918 22.4864 50.874 23.0114C50.3086 23.6099 49.5338 23.9669 48.7694 24.3449ZM46.1726 10.6741C45.7014 10.7056 45.4187 10.9261 45.0313 11.0521C44.78 11.2831 44.4659 11.4616 44.2774 11.7556C43.9633 11.9341 43.8795 12.3331 43.6282 12.5641C43.4188 13.0891 43.2199 13.6771 43.0837 14.3596C42.9581 15.0316 42.8743 15.7875 42.8638 16.533C42.8534 18.402 43.2513 20.2604 43.9947 21.3629C44.4345 21.8984 44.9685 22.3394 45.6177 22.6649C45.9946 22.6964 46.2878 22.8224 46.6962 22.8329C46.9265 22.7489 47.3035 22.8329 47.4501 22.6649C47.7851 22.6859 47.8584 22.4654 48.1516 22.4444C48.3087 22.2869 48.4762 22.1609 48.6961 22.0664C48.895 21.8459 49.0835 21.6254 49.2929 21.4154C49.3976 21.2579 49.4605 21.0374 49.6175 20.9219C50.5599 19.116 50.6646 15.8085 50.0468 13.7086C49.8165 12.9421 49.4919 12.3226 49.1254 11.8081C48.7275 11.3986 48.2563 11.0521 47.7223 10.7791C47.293 10.6846 46.8846 10.5691 46.3192 10.6216C46.2878 10.6216 46.2564 10.6321 46.2669 10.6741C46.2459 10.6741 46.2145 10.6741 46.1726 10.6741ZM57.5963 9.15168C58.4444 9.18318 59.4392 9.07818 60.1931 9.20418C60.3606 9.46667 60.2978 9.78167 60.2978 10.0757C60.3606 14.0551 60.2978 18.3285 60.2978 22.3919C60.2978 22.7174 60.3082 23.0534 60.2978 23.3684C60.2873 23.6414 60.3606 23.9354 60.1931 24.1874C59.8161 24.2819 59.2716 24.2399 58.79 24.2399C58.2769 24.2399 57.7743 24.3134 57.4392 24.1349C57.345 19.326 57.345 14.1391 57.4392 9.31968C57.4602 9.23568 57.5125 9.18318 57.5963 9.15168ZM64.0882 9.15168H66.6326C66.863 9.46667 66.9363 9.93916 67.0096 10.4012C67.7739 13.3201 68.5278 16.2495 69.2294 19.242C69.3969 19.263 69.3446 19.0635 69.3969 18.969C69.4702 18.8955 69.4283 18.717 69.5016 18.6435C69.533 18.402 69.6796 18.276 69.6691 17.9925C69.8576 17.625 69.9204 17.121 70.0984 16.743C70.3183 15.861 70.6115 15.0421 70.8628 14.1916C71.1037 13.3096 71.4282 12.5116 71.6167 11.5876C71.9727 10.8421 72.0565 9.82366 72.4858 9.15168H73.5643C73.9517 9.88666 74.0983 10.8631 74.4334 11.6506C74.6533 12.5326 74.9569 13.3306 75.1873 14.2021C75.7213 15.8925 76.2762 17.562 76.7579 19.305C76.9778 18.9795 76.9778 18.4335 77.1348 18.0555C77.2291 17.625 77.3129 17.184 77.4594 16.806C77.8783 15.0841 78.2762 13.3516 78.7578 11.7031C78.9358 10.8421 79.1138 9.96016 79.407 9.20418C80.0353 9.10968 80.9986 9.10968 81.6268 9.20418C81.6792 9.84466 81.386 10.5376 81.1975 11.1046C81.0928 11.7976 80.8415 12.3331 80.7054 13.0051C80.318 14.2336 80.0248 15.5355 79.6269 16.7535C79.3232 18.0555 78.9149 19.2525 78.6008 20.5544C78.3913 21.1529 78.2447 21.8144 78.0563 22.4549C77.8469 23.0429 77.7736 23.7674 77.4594 24.2504H75.9412C75.5538 23.5679 75.4176 22.6439 75.0721 21.9194C74.3182 19.5255 73.4805 17.226 72.7476 14.8111C72.4963 15.0736 72.4963 15.609 72.3183 15.945C72.2031 16.3545 72.0879 16.764 71.9413 17.142C71.7319 17.9715 71.4178 18.675 71.2398 19.5255C70.9361 20.2709 70.7162 21.1004 70.4859 21.9194C70.1717 22.6334 70.0566 23.5469 69.6691 24.1979C69.2713 24.3239 68.643 24.2189 68.1509 24.2504C67.7739 23.8199 67.732 23.0429 67.5017 22.4549C67.3237 21.8459 67.198 21.1739 66.9677 20.6069C66.6745 19.284 66.2347 18.1185 65.9415 16.806C65.5541 15.588 65.219 14.3176 64.863 13.0576C64.6641 12.4591 64.5175 11.8186 64.3186 11.2096C64.2243 10.5586 63.7845 9.97066 63.9416 9.25668C63.9625 9.20418 64.0254 9.17268 64.0882 9.15168ZM85.4591 9.15168C86.3073 9.18318 87.2915 9.07818 88.0559 9.20418C88.2444 9.77117 88.1606 10.3802 88.1606 10.9891V22.3814C88.1606 23.0009 88.2339 23.5994 88.0559 24.1769C87.4695 24.2399 86.6109 24.2714 85.8885 24.2294C85.679 24.2189 85.4277 24.2819 85.2916 24.1244C85.1031 23.5574 85.1869 22.9589 85.1869 22.3289V11.0521C85.1869 10.3697 85.1241 9.70817 85.2916 9.25668C85.3335 9.20418 85.3963 9.17268 85.4591 9.15168Z" fill="#0269B3"/>
</g>
<defs>
<clipPath id="clip0">
<rect width="88.0387" height="37.8412" fill="white" transform="translate(0.142578 0.751953)"/>
</clipPath>
</defs>
</svg>
