<svg width="66" height="22" viewBox="0 0 66 22" fill="none" xmlns="http://www.w3.org/2000/svg">
<path d="M28.2924 20.805H22.9891L26.3036 0.435268H31.6074L28.2924 20.805ZM18.5276 0.435268L13.4716 14.4458L12.8734 11.4288L12.8739 11.4298L11.0894 2.26933C11.0894 2.26933 10.8737 0.435268 8.57372 0.435268H0.215266L0.117188 0.780177C0.117188 0.780177 2.67322 1.31198 5.66461 3.10845L10.2721 20.8056H15.7977L24.2352 0.435268H18.5276V0.435268ZM60.2408 20.805H65.1104L60.8647 0.434724H56.6016C54.6329 0.434724 54.1534 1.95276 54.1534 1.95276L46.244 20.805H51.7723L52.8779 17.7793H59.6197L60.2408 20.805ZM54.4052 13.5996L57.1917 5.97669L58.7593 13.5996H54.4052ZM46.6586 5.33374L47.4155 0.959441C47.4155 0.959441 45.0801 0.0712891 42.6456 0.0712891C40.0138 0.0712891 33.764 1.22153 33.764 6.81472C33.764 12.0772 41.0992 12.1426 41.0992 14.9067C41.0992 17.6709 34.5198 17.1756 32.3485 15.4325L31.56 20.0063C31.56 20.0063 33.9281 21.1565 37.5461 21.1565C41.1651 21.1565 46.6248 19.2827 46.6248 14.1826C46.6248 8.88635 39.2237 8.39324 39.2237 6.09058C39.2243 3.78737 44.3892 4.08324 46.6586 5.33374V5.33374Z" fill="#2566AF"/>
<path d="M12.8739 11.4301L11.0894 2.26961C11.0894 2.26961 10.8736 0.435547 8.57371 0.435547H0.215266L0.117188 0.780455C0.117188 0.780455 4.13458 1.61303 7.98796 4.73246C11.6724 7.71404 12.8739 11.4301 12.8739 11.4301Z" fill="#E6A540"/>
</svg>
