<svg width="170" height="59" viewBox="0 0 170 59" fill="none" xmlns="http://www.w3.org/2000/svg">
<path fill-rule="evenodd" clip-rule="evenodd" d="M65.5363 25.6082C66.5798 25.5568 68.4433 25.205 68.3518 25.4896C68.2342 25.8559 65.0117 26.7293 64.4803 27.0768C64.493 27.1044 64.5032 27.1342 64.5137 27.1649L64.5566 27.29C65.3192 27.5988 68.6578 27.8099 68.1946 27.9643C66.8024 28.4276 63.9869 29.5051 61.8261 30.3763C61.8257 30.3655 61.8252 30.3547 61.8248 30.3438C61.0384 30.6634 60.2732 30.992 59.5232 31.3263C59.5551 31.4912 59.5732 31.6609 59.5732 31.8351C59.5732 46.8138 47.2686 59 32.1444 59C23.9436 59 16.5732 55.4161 11.5426 49.7479C16.3744 53.9544 22.7058 56.5093 29.6295 56.5093C44.7537 56.5093 57.0582 44.3231 57.0582 29.3443C57.0582 29.1701 57.0402 29.0005 57.0082 28.8356C58.657 28.1005 60.4135 27.4045 62.2683 26.7747L65.5363 25.6082ZM27.4289 0C36.3397 0 46.3607 6.10032 51.4991 13.3237C51.7149 13.6272 48.649 11.129 48.9711 11.9226C49.2517 12.6144 51.3078 14.8159 51.2708 15.1139C51.2154 15.5614 48.7931 14.4295 48.5201 14.8025C48.3488 15.0364 49.1353 15.3382 48.8835 15.514C48.558 15.7411 47.7872 15.0051 47.4198 15.075C47.0424 15.1467 47.3936 15.7928 47.024 15.7073C46.3978 15.5624 45.8209 15.1981 45.4214 14.6366C45.3396 14.5216 45.2567 14.4075 45.1729 14.2943C41.4399 11.5781 36.8848 10.0542 32.1446 10.0542C20.0176 10.0542 10.1519 19.8251 10.1519 31.835C10.1519 36.6533 11.7406 41.1103 14.4255 44.7212C18.0699 47.3757 22.5678 48.9458 27.4289 48.9458C32.2177 48.9458 36.6537 47.422 40.2688 44.8384C40.0457 44.8884 39.8165 44.9144 39.5799 44.9144C39.5196 44.9144 39.4589 44.9133 39.3978 44.911C38.0472 44.8613 37.1621 43.7282 35.7539 42.225C35.6682 42.1335 35.5673 42.0264 35.454 41.9067C35.8985 42.2143 36.355 42.4008 36.8828 42.4203C36.9439 42.4226 37.0046 42.4237 37.065 42.4237C39.3047 42.4237 40.8882 40.0892 43.0576 37.9736C43.304 37.7336 43.5631 37.4808 43.8371 37.2164C44.9843 36.1094 46.5408 34.8492 48.4542 33.5528C48.8633 32.2392 49.1487 30.8724 49.2985 29.4661C45.9541 31.4054 43.3426 33.3905 41.6365 35.0369C41.3625 35.3014 41.1033 35.5542 40.857 35.7943C38.6876 37.9099 37.1041 40.2443 34.8644 40.2443C34.804 40.2443 34.7435 40.2432 34.6822 40.2409C33.3317 40.1912 32.4466 39.0581 31.0383 37.5548C29.3247 35.7255 21.7479 27.8757 21.6711 27.7971C21.2765 27.3939 19.0135 23.9904 18.8908 23.4812C18.793 23.0753 20.786 25.5725 20.8597 25.1631C20.9339 24.752 19.1946 21.9314 19.4409 21.5743C19.5552 21.4088 21.5876 23.6741 21.7387 23.5292C22.1434 23.1406 20.9735 22.0469 21.4843 21.9245C21.9366 21.8162 23.6832 22.7331 24.0779 22.9753C25.1524 23.6343 25.2179 23.6237 25.6497 24.065C25.9408 24.3622 32.6259 30.3205 35.0509 32.9464C35.5112 32.5358 36.0821 31.9789 36.5805 31.4929C36.8339 31.2459 37.101 30.9854 37.3829 30.7135C39.2148 28.9456 46.1498 22.8587 58.4718 18.7566C59.0358 18.5689 61.2111 18.0597 61.75 18.1884C62.2483 18.3075 58.1604 19.4026 58.5406 19.7451C58.9119 20.0797 61.9846 19.2404 62.1559 19.7451C62.228 19.9578 60.0499 20.6206 60.0732 20.8348C60.1189 21.257 63.6965 20.4433 63.5706 20.8348C63.4472 21.2192 59.9063 22.1615 59.6409 22.4694C59.2948 22.8709 63.9552 23.129 63.4134 23.3094C61.4308 23.9696 56.5587 25.8755 54.8077 26.6563C54.8396 26.821 54.8576 26.9907 54.8576 27.1649C54.8576 42.1437 42.5531 54.3298 27.4289 54.3298C12.3046 54.3298 0 42.1437 0 27.1649C0 12.1862 12.3046 0 27.4289 0ZM102.411 33.4333V49.2337H111V54.0833H97V33.4333H102.411ZM131.53 36.3612C133.716 38.4151 134.778 40.8617 134.717 43.7008C134.778 46.5604 133.716 49.0071 131.53 51.0406C129.344 53.0748 126.777 54.0709 123.829 54.0307C120.86 54.0709 118.299 53.0748 116.144 51.0406C113.988 49.0071 112.942 46.5604 113.003 43.7008C112.942 40.8617 113.994 38.4151 116.159 36.3612C118.324 34.3073 120.881 33.3107 123.829 33.3709C126.777 33.3107 129.344 34.3073 131.53 36.3612ZM84.2093 33.3709C87.9706 33.3709 90.8579 34.8509 92.8708 37.8111L89.2111 40.8919C87.889 39.0599 86.1917 38.1433 84.1177 38.1433C82.43 38.1433 81.0933 38.6468 80.1074 39.6535C79.1208 40.6607 78.628 42.0094 78.628 43.7008C78.628 45.4126 79.1514 46.7922 80.1989 47.8389C81.2458 48.8863 82.654 49.4096 84.4228 49.4096C86.3337 49.4096 87.8081 48.8157 88.845 47.6277V46.6911H84.1483V42.2209H94.0907V48.5036C93.1552 50.1548 91.8133 51.4938 90.0649 52.5206C88.3161 53.5279 86.3642 54.0307 84.2093 54.0307C81.1796 54.0709 78.5871 53.0794 76.4323 51.0557C74.3539 49.1042 73.2964 46.7553 73.2603 44.0077L73.2604 43.7008C73.2194 40.8419 74.277 38.3952 76.4323 36.3612C78.5871 34.3277 81.1796 33.3309 84.2093 33.3709ZM151.4 33.3709L156.035 43.3083L159.817 33.7334H165.673L157.377 54.0309H155.7L150.576 43.6102L145.422 54.0309H143.745L135.449 33.7334H141.305L145.086 43.3083L149.722 33.3709H151.4ZM123.86 38.1433C122.233 38.1433 120.911 38.6567 119.895 39.6837C118.878 40.7107 118.37 42.0501 118.37 43.7008C118.37 45.3522 118.878 46.7014 119.895 47.7483C120.911 48.7556 122.233 49.2585 123.86 49.2585C125.446 49.2585 126.757 48.7451 127.794 47.7183C128.831 46.6911 129.35 45.3522 129.35 43.7008C129.35 42.0699 128.826 40.7361 127.779 39.6988C126.732 38.6619 125.425 38.1433 123.86 38.1433ZM27.4289 5.38407C15.3021 5.38407 5.43624 15.155 5.43624 27.1649C5.43624 33.7261 8.38072 39.619 13.0297 43.6155C9.67253 39.7909 7.63696 34.7989 7.63696 29.3443C7.63696 17.3343 17.5027 7.56343 29.6296 7.56343C34.9779 7.56343 40.0915 9.50172 44.0536 12.9064C39.8968 8.16103 33.8308 5.38407 27.4289 5.38407ZM84.2093 5.2081C87.9706 5.2081 90.8579 6.68807 92.8708 9.64817L89.2111 12.7291C87.889 10.897 86.1917 9.98038 84.1177 9.98038C82.43 9.98038 81.0933 10.484 80.1074 11.4906C79.1208 12.4978 78.628 13.8466 78.628 15.538C78.628 17.2498 79.1514 18.6294 80.1989 19.6761C81.2458 20.7235 82.654 21.2467 84.4228 21.2467C86.3337 21.2467 87.8081 20.6529 88.845 19.4647V18.5283H84.1483V14.058H94.0907V20.3407C93.1552 21.9919 91.8133 23.331 90.0649 24.3578C88.3161 25.365 86.3642 25.8679 84.2093 25.8679C81.1796 25.9081 78.5871 24.9165 76.4323 22.8929C74.3539 20.9414 73.2964 18.5924 73.2603 15.8449L73.2604 15.538C73.2194 12.679 74.277 10.2324 76.4323 8.1984C78.5871 6.1647 81.1796 5.16794 84.2093 5.2081ZM153.836 5.20797L164.754 15.5381V5.57053H170V25.868H168.323L157.404 15.3871V25.5056H152.159V5.20797H153.836ZM104.978 5.57053C107.235 5.57053 109.096 6.20007 110.56 7.45821C112.023 8.71698 112.755 10.373 112.755 12.427C112.755 14.9241 111.698 16.8171 109.584 18.1056L114.89 25.5056H109.035L104.49 19.3136H102.325V25.5056H97.0793V5.57053H104.978ZM130.932 5.57055V10.2522H122.21V13.0008H128.431V17.3504H122.21V20.8239H131.298V25.5056H116.964V5.57055H130.932ZM148.53 5.57055V10.2522H139.807V13.0008H146.029V17.3504H139.807V20.8239H148.895V25.5056H134.561V5.57055H148.53ZM50.2448 11.4306C51.8593 12.8331 51.9338 12.9109 53.1963 14.6857C53.4239 15.0056 54.1075 16.2711 54.1787 16.6316C54.2499 16.9923 54.7666 19.0014 54.6895 19.3559C54.6165 19.6932 52.6344 17.7581 52.3711 17.9938C52.2136 18.1351 53.4313 19.8933 53.157 20.0844C52.684 20.4145 51.848 19.3929 51.3101 19.3948C50.7961 19.3965 51.3475 20.308 50.9071 20.0326C50.613 19.8488 50.3498 19.6057 50.137 19.3067C49.7689 18.7894 49.3792 18.2913 48.9712 17.8119C48.2101 17.0594 48.1541 16.3039 50.2761 17.0305C50.598 17.1405 50.3797 16.2381 50.642 16.2814C52.5283 16.5927 53.2626 15.7904 52.0663 13.7151C51.5773 12.867 50.8885 12.1561 50.2448 11.4306ZM105.009 10.1012H102.325V14.7829H105.009C105.741 14.7829 106.325 14.5668 106.762 14.1336C107.2 13.7008 107.418 13.1321 107.418 12.427C107.418 11.7224 107.2 11.1584 106.762 10.7356C106.325 10.3126 105.741 10.1012 105.009 10.1012Z" fill="#81B03F"/>
</svg>
