<svg xmlns="http://www.w3.org/2000/svg" style="display:none"><defs><clipPath id="a"><path fill="#fff" d="M0 0h16v16H0z"/></clipPath><clipPath id="a"><path fill="#fff" d="M0 0h40v40H0z"/></clipPath><clipPath id="a"><path fill="#fff" transform="translate(.175 .175)" d="M0 0h16.65v16.65H0z"/></clipPath><clipPath id="a"><path fill="#fff" d="M0 0h40v40H0z"/></clipPath><clipPath id="a"><path fill="#fff" d="M0 0h37v37H0z"/></clipPath><clipPath id="a"><path fill="#fff" transform="translate(.25 .25)" d="M0 0h18.5v18.5H0z"/></clipPath><filter id="a" x="0" y="0" width="56" height="56" filterUnits="userSpaceOnUse" color-interpolation-filters="sRGB"><feFlood flood-opacity="0" result="BackgroundImageFix"/><feColorMatrix in="SourceAlpha" values="0 0 0 0 0 0 0 0 0 0 0 0 0 0 0 0 0 0 127 0"/><feOffset/><feGaussianBlur stdDeviation="5"/><feColorMatrix values="0 0 0 0 1 0 0 0 0 1 0 0 0 0 1 0 0 0 0.5 0"/><feBlend in2="BackgroundImageFix" result="effect1_dropShadow"/><feBlend in="SourceGraphic" in2="effect1_dropShadow" result="shape"/></filter><linearGradient id="b" x1="46" y1="12.945" x2="7.132" y2="16.06" gradientUnits="userSpaceOnUse"><stop stop-color="#08CB56"/><stop offset="1" stop-color="#1FE16D"/></linearGradient></defs><symbol id="icon-basket" viewBox="0 0 14 14"><path d="M4.2 11.2c-.77 0-1.4.63-1.4 1.4 0 .77.63 1.4 1.4 1.4.77 0 1.4-.63 1.4-1.4 0-.77-.63-1.4-1.4-1.4zM0 0v1.4h1.4l2.52 5.32-.98 1.68c-.07.21-.14.49-.14.7 0 .77.63 1.4 1.4 1.4h8.4V9.1H4.48a.15.15 0 0 1-.14-.14v-.07l.63-1.19h5.18c.56 0 .98-.28 1.19-.7l2.52-4.55c.14-.14.14-.21.14-.35 0-.42-.28-.7-.7-.7H2.94L2.31 0H0zm11.2 11.2c-.77 0-1.4.63-1.4 1.4 0 .77.63 1.4 1.4 1.4.77 0 1.4-.63 1.4-1.4 0-.77-.63-1.4-1.4-1.4z" fill="#0FC057"/></symbol><symbol id="icon-bio-energy" viewBox="0 0 40 40"><path d="M33.381 38c-1.543-1.545-5.661-5.104-12.209-5.506v-2.536h1.339c4.044 0 7.448-3.265 7.448-7.447 0-.648-.525-1.172-1.172-1.172h-2.51a7.49 7.49 0 0 0-5.105 2.024v-3.639a3.688 3.688 0 0 0 2.51-3.49V14.21l1.56-1.56a7.404 7.404 0 0 0 1.609-8.076A7.394 7.394 0 0 0 20 0a7.394 7.394 0 0 0-6.852 4.576 7.403 7.403 0 0 0 1.61 8.074l1.56 1.56v2.024c0 1.621 1.052 3 2.51 3.49v3.639a7.492 7.492 0 0 0-5.105-2.024h-2.51c-.647 0-1.172.526-1.172 1.173 0 4.178 3.401 7.446 7.448 7.446h1.338v2.536C12.281 32.896 8.162 36.456 6.62 38a1.172 1.172 0 0 0 .83 2h25.104a1.172 1.172 0 0 0 .828-2zm-7.105-14.318h1.205c-.74 3.168-3.66 3.933-4.97 3.933h-1.205c.74-3.168 3.66-3.933 4.97-3.933zm-8.786 3.933c-1.563 0-4.278-.965-4.97-3.933h1.204c1.567 0 4.28.969 4.97 3.933H17.49zm-1.073-16.622A5.065 5.065 0 0 1 20 2.343a5.066 5.066 0 0 1 3.583 8.65l-1.557 1.559h-.854v-2.108l.912-.912a1.172 1.172 0 0 0-1.657-1.657L20 8.3l-.426-.426a1.172 1.172 0 1 0-1.658 1.657l.912.912v2.108h-.853l-1.558-1.559zm2.245 5.241v-1.338h2.677v1.338c0 .738-.6 1.339-1.339 1.339a1.34 1.34 0 0 1-1.338-1.339zm-7.968 21.422A16.6 16.6 0 0 1 20 34.801a16.6 16.6 0 0 1 9.306 2.855H10.694z" fill="#0FC057"/></symbol><symbol id="icon-call" viewBox="0 0 16 16"><g clip-path="url(#a)"><path d="M15.689 12.723l-1.774-1.183-1.577-1.051a.699.699 0 0 0-.938.152l-.975 1.255a.695.695 0 0 1-.888.184c-.662-.369-1.444-.716-3.172-2.445-1.727-1.73-2.076-2.51-2.445-3.172a.695.695 0 0 1 .184-.888L5.36 4.6a.699.699 0 0 0 .152-.938L4.492 2.133 3.277.311A.698.698 0 0 0 2.337.1L.936.94a1.712 1.712 0 0 0-.777 1.006c-.384 1.397-.46 4.479 4.478 9.417 4.939 4.94 8.02 4.862 9.417 4.478.422-.12.783-.398 1.006-.777l.84-1.401a.698.698 0 0 0-.211-.94zM9.103 2.482a4.695 4.695 0 0 1 4.69 4.69.276.276 0 0 0 .551 0 5.247 5.247 0 0 0-5.241-5.241.276.276 0 0 0 0 .551z"/><path d="M9.103 4.138a3.038 3.038 0 0 1 3.034 3.034.276.276 0 1 0 .552 0 3.59 3.59 0 0 0-3.586-3.586.276.276 0 0 0 0 .552z"/><path d="M9.103 5.793a1.38 1.38 0 0 1 1.38 1.38.276.276 0 0 0 .551 0A1.933 1.933 0 0 0 9.103 5.24a.276.276 0 0 0 0 .552z"/></g></symbol><symbol id="icon-earth" viewBox="0 0 40 40"><g clip-path="url(#a)"><path d="M38.35 22.932a5.645 5.645 0 0 0-3.784-1.651c.27-1.221.413-2.49.413-3.791C34.98 7.83 27.15 0 17.49 0 7.83 0 0 7.83 0 17.49c0 9.659 7.83 17.49 17.49 17.49 1.756 0 3.45-.26 5.05-.742l5.42 5.419a1.172 1.172 0 0 0 1.656 0l8.727-8.727c2.207-2.207 2.21-5.794.007-7.998zm-5.715-5.442a15.13 15.13 0 0 1-.612 4.275 5.682 5.682 0 0 0-1.69 1.16l-1.551 1.552-1.418-1.417v-2.355c0-.969-.393-1.918-1.078-2.604l-5.105-5.104a1.348 1.348 0 0 1-.392-.947c0-.357.14-.693.392-.946l5.585-5.585a15.143 15.143 0 0 1 5.87 11.97zm-30.291 0c0-7.158 4.723-12.174 9.623-14.105v2.186c0 .358-.14.694-.393.947L8.645 9.447a3.683 3.683 0 0 0 0 5.207l5.153 5.153a1.337 1.337 0 0 1 0 1.893l-6.753 6.753c-3-2.856-4.701-6.794-4.701-10.963zM17.49 32.635c-3.084 0-6.099-.949-8.619-2.694l6.584-6.584a3.679 3.679 0 0 0 0-5.207l-5.152-5.153a1.34 1.34 0 0 1 0-1.893l2.928-2.93a3.658 3.658 0 0 0 1.08-2.603V2.678a15.212 15.212 0 0 1 3.179-.334c2.565 0 5.053.64 7.276 1.861l-5.242 5.242a3.683 3.683 0 0 0 0 5.207l5.104 5.105c.25.249.393.594.393.946v.853a5.662 5.662 0 0 0-5.789 1.36 5.68 5.68 0 0 0-.006 8.012l1.384 1.383c-1.021.215-2.065.322-3.12.322zm19.196-3.362l-7.898 7.898-7.897-7.897a3.331 3.331 0 0 1 .005-4.698 3.316 3.316 0 0 1 4.683.007l2.38 2.38c.457.457 1.2.457 1.657 0l2.38-2.379a3.33 3.33 0 0 1 4.697.005 3.316 3.316 0 0 1-.007 4.684z" fill="#0FC057"/></g></symbol><symbol id="icon-facebook" viewBox="0 0 17 17"><g clip-path="url(#a)"><path d="M9.54 5.898V3.817c0-.574.466-1.04 1.04-1.04h1.041V.174H9.54a3.122 3.122 0 0 0-3.122 3.122v2.601H4.337V8.5h2.081v8.325H9.54V8.5h2.081l1.04-2.602H9.54z" fill="#81B03F"/></g></symbol><symbol id="icon-gear" viewBox="0 0 40 40"><g clip-path="url(#a)" fill="#0FC057"><path d="M39.785 17.101a1.172 1.172 0 0 0-1.04-.993l-1.735-.176a17.202 17.202 0 0 0-2.106-5.084l1.103-1.353c.34-.416.353-1.01.032-1.44a20.07 20.07 0 0 0-4.092-4.095 1.172 1.172 0 0 0-1.442.032l-1.352 1.104a17.277 17.277 0 0 0-5.087-2.11l-.176-1.735a1.172 1.172 0 0 0-.997-1.04 19.965 19.965 0 0 0-5.786 0 1.172 1.172 0 0 0-.996 1.04l-.177 1.735a17.276 17.276 0 0 0-5.087 2.11L9.496 3.992a1.172 1.172 0 0 0-1.443-.032 20.075 20.075 0 0 0-4.091 4.094c-.321.43-.309 1.025.03 1.44l1.105 1.354a17.204 17.204 0 0 0-2.107 5.084l-1.734.176a1.172 1.172 0 0 0-1.04.993 19.627 19.627 0 0 0 0 5.798c.078.53.507.939 1.04.993l1.734.176a17.205 17.205 0 0 0 2.107 5.084l-1.104 1.353a1.172 1.172 0 0 0-.031 1.44 20.073 20.073 0 0 0 4.092 4.095 1.172 1.172 0 0 0 1.442-.032l1.351-1.104a17.278 17.278 0 0 0 5.087 2.11l.177 1.735c.054.534.465.962.996 1.04 2.57.376 4.646.167 5.787 0 .53-.078.941-.506.996-1.04l.177-1.735a17.278 17.278 0 0 0 5.086-2.11l1.352 1.104c.416.34 1.01.354 1.442.032a20.07 20.07 0 0 0 4.092-4.094 1.172 1.172 0 0 0-.032-1.44l-1.103-1.354a17.204 17.204 0 0 0 2.107-5.084l1.733-.176a1.172 1.172 0 0 0 1.041-.993 19.643 19.643 0 0 0 0-5.798zm-2.208 4.553l-1.655.168c-.518.053-.94.441-1.034.954a14.922 14.922 0 0 1-2.399 5.789 1.172 1.172 0 0 0 .058 1.404l1.051 1.29a17.723 17.723 0 0 1-2.338 2.34l-1.287-1.051a1.172 1.172 0 0 0-1.405-.059 14.994 14.994 0 0 1-5.794 2.403c-.512.095-.9.516-.953 1.033l-.168 1.654c-1.1.103-2.206.103-3.305 0l-.169-1.654a1.172 1.172 0 0 0-.952-1.033 14.996 14.996 0 0 1-5.795-2.403 1.172 1.172 0 0 0-1.404.059L8.74 33.599a17.724 17.724 0 0 1-2.339-2.34l1.052-1.29c.329-.403.352-.975.057-1.404a14.925 14.925 0 0 1-2.398-5.79 1.172 1.172 0 0 0-1.035-.953l-1.655-.168a17.279 17.279 0 0 1 0-3.309l1.655-.167c.519-.053.94-.442 1.035-.954a14.923 14.923 0 0 1 2.398-5.789 1.172 1.172 0 0 0-.057-1.405L6.402 8.74A17.726 17.726 0 0 1 8.741 6.4l1.287 1.052c.403.33.975.353 1.404.058a14.995 14.995 0 0 1 5.795-2.402c.511-.095.9-.516.952-1.033l.169-1.654a17.63 17.63 0 0 1 3.305 0l.169 1.654c.052.517.44.938.952 1.033a14.995 14.995 0 0 1 5.794 2.402c.43.295 1.002.271 1.405-.058l1.287-1.051a17.725 17.725 0 0 1 2.338 2.34l-1.051 1.29c-.33.403-.353.975-.058 1.404a14.923 14.923 0 0 1 2.399 5.79c.094.511.516.9 1.034.953l1.655.167a17.273 17.273 0 0 1 0 3.31z"/><path d="M20.001 7.531C13.126 7.531 7.532 13.125 7.532 20c0 6.875 5.594 12.469 12.469 12.469 6.875 0 12.469-5.594 12.469-12.469 0-6.875-5.594-12.469-12.469-12.469zm0 22.594c-5.583 0-10.125-4.542-10.125-10.125S14.418 9.875 20.001 9.875 30.126 14.417 30.126 20s-4.542 10.125-10.125 10.125z"/><path d="M25.021 13.807h-4.393a5.571 5.571 0 0 0-5.565 5.565v3.908l-.912.912a1.172 1.172 0 1 0 1.657 1.657l.912-.912h3.908a5.571 5.571 0 0 0 5.565-5.565V14.98c0-.647-.525-1.172-1.172-1.172zm-1.172 5.565a3.225 3.225 0 0 1-3.221 3.222h-1.564l2.392-2.393a1.172 1.172 0 0 0-1.657-1.657l-2.392 2.392v-1.564a3.225 3.225 0 0 1 3.22-3.221h3.222v3.221z"/></g></symbol><symbol id="icon-heart" viewBox="0 0 40 40"><path d="M30.041 11.297H28.16c-3.692 0-6.654 2.1-8.16 4.797-1.504-2.698-4.467-4.797-8.158-4.797H9.958c-.647 0-1.172.525-1.172 1.172v1.883c0 5.206 4.23 9.33 9.33 9.33h.712v4.534a1.172 1.172 0 0 0 2.344 0v-4.534h.71c5.107 0 9.331-4.128 9.331-9.33v-1.883c0-.647-.524-1.172-1.172-1.172zM18.828 21.338h-.711c-3.83 0-6.987-3.098-6.987-6.986v-.711h.71c3.832 0 6.988 3.098 6.988 6.987v.71zm10.042-6.986c0 3.892-3.16 6.986-6.988 6.986h-.71v-.71c0-3.893 3.16-6.987 6.987-6.987h.71v.71z" fill="#0FC057"/><path d="M28.787 0C25.745 0 21.909 1.46 20 4.543 18.09 1.46 14.252 0 11.213 0 5.96 0 0 3.777 0 12.469c0 14.35 16.356 25.633 19.42 27.378a1.172 1.172 0 0 0 1.16 0C23.557 38.152 40 26.895 40 12.469 40 3.997 34.257 0 28.787 0zM20 37.441C16.845 35.386 2.344 25.24 2.344 12.47c0-8.182 5.82-10.125 8.87-10.125 3.07 0 7.614 2.02 7.614 6.36a1.172 1.172 0 0 0 2.344 0c0-4.34 4.544-6.36 7.614-6.36 3.051 0 8.87 1.944 8.87 10.125 0 12.77-14.501 22.917-17.656 24.972z" fill="#0FC057"/></symbol><symbol id="icon-instagram" viewBox="0 0 19 19"><path d="M11.17 9.5a1.67 1.67 0 1 1-3.34 0 1.67 1.67 0 0 1 3.34 0z" fill="#81B03F"/><path d="M12.32 4.453H6.68A2.229 2.229 0 0 0 4.453 6.68v5.64c0 1.228.999 2.227 2.227 2.227h5.64a2.23 2.23 0 0 0 2.227-2.227V6.68a2.229 2.229 0 0 0-2.227-2.227zm-2.82 7.83A2.786 2.786 0 0 1 6.717 9.5 2.786 2.786 0 0 1 9.5 6.717 2.786 2.786 0 0 1 12.283 9.5 2.786 2.786 0 0 1 9.5 12.283zm3.191-5.418a.557.557 0 1 1 0-1.113.557.557 0 0 1 0 1.113z" fill="#81B03F"/><path d="M13.99 0H5.01A5.016 5.016 0 0 0 0 5.01v8.98A5.016 5.016 0 0 0 5.01 19h8.98A5.015 5.015 0 0 0 19 13.99V5.01A5.016 5.016 0 0 0 13.99 0zm1.67 12.32a3.344 3.344 0 0 1-3.34 3.34H6.68a3.344 3.344 0 0 1-3.34-3.34V6.68a3.344 3.344 0 0 1 3.34-3.34h5.64a3.344 3.344 0 0 1 3.34 3.34v5.64z" fill="#81B03F"/></symbol><symbol id="icon-maestro" viewBox="0 0 37 37"><path d="M18.5 37C28.717 37 37 28.717 37 18.5S28.717 0 18.5 0 0 8.283 0 18.5 8.283 37 18.5 37z" fill="#003473"/><path d="M18.016 24.067a7.936 7.936 0 0 0 2.624-5.903 7.997 7.997 0 0 0-2.624-5.919 7.902 7.902 0 0 0-5.341-2.061c-4.403 0-7.98 3.576-7.98 7.98s3.577 7.964 7.98 7.964c2.062 0 3.935-.78 5.34-2.06z" fill="#009DDD"/><path d="M18.016 24.067a7.936 7.936 0 0 0 2.624-5.903 7.997 7.997 0 0 0-2.624-5.919v11.822z" fill="#009DDD"/><path d="M23.373 10.184a7.973 7.973 0 0 0-5.357 2.061c-.28.265-.546.547-.797.844h1.609c.219.265.422.562.609.843H16.61a11.95 11.95 0 0 0-.469.843h3.749c.125.28.25.563.343.844h-4.418a7.622 7.622 0 0 0-.235.859h4.888c.109.53.172 1.109.172 1.686 0 .875-.141 1.734-.407 2.53h-4.418c.093.281.202.563.327.844h3.748c-.14.28-.281.577-.453.843H16.61c.188.297.39.578.61.843h1.608a8.2 8.2 0 0 1-.812.844 7.97 7.97 0 0 0 5.357 2.061 7.958 7.958 0 0 0 7.965-7.965c0-4.404-3.56-7.98-7.965-7.98z" fill="#ED1C2E"/><path d="M28.589 19.882c0-.141.126-.25.266-.25s.25.109.25.25c0 .14-.11.265-.25.265a.274.274 0 0 1-.266-.265zm.266.203c.109 0 .187-.094.187-.203a.18.18 0 0 0-.187-.188c-.11 0-.203.078-.203.188s.093.203.203.203zm-.032-.094h-.062v-.219h.094c.03 0 .046 0 .062.016.016.015.031.03.031.047 0 .031-.015.063-.047.063l.047.093h-.063l-.03-.078h-.032v.078zm0-.125h.062v-.047h-.062v.047zM11.676 20.147h-1l.594-3.108-1.359 3.108h-.906l-.156-3.092-.593 3.092H7.35l.765-4.044h1.561l.078 2.498 1.095-2.498h1.607l-.78 4.044zM22.764 20.1a2.535 2.535 0 0 1-.72.11c-.498 0-.78-.25-.78-.719 0-.094.016-.188.03-.297l.063-.328.048-.25.453-2.514h.983l-.14.75h.515l-.14.797h-.515l-.25 1.373c-.016.063-.032.11-.032.141 0 .172.11.25.345.25.109 0 .202-.016.265-.032l-.125.72zM25.653 16.883c-.079-.032-.094-.032-.11-.032-.047-.016-.078-.016-.078-.03h-.109c-.328 0-.562.14-.86.53l.094-.5h-.906l-.609 3.296h1c.359-2.016.5-2.374.983-2.374.032 0 .08.015.125.015l.11.031.36-.936zM18.828 17.898c0 .406.235.703.765.906.407.171.47.219.47.375 0 .203-.188.297-.579.297-.297 0-.578-.047-.906-.14l-.125.765h.047l.172.046c.062 0 .155.016.265.016.235.03.422.03.563.03 1.046 0 1.546-.343 1.546-1.092 0-.453-.203-.718-.719-.921-.422-.157-.468-.203-.468-.36 0-.17.172-.265.5-.265.187 0 .468.016.717.047l.141-.75a5.984 5.984 0 0 0-.874-.062c-1.124 0-1.515.499-1.515 1.108zM14.893 20.148h-.813l.017-.345c-.25.266-.594.391-1.047.391-.53 0-.905-.359-.905-.89 0-.797.639-1.265 1.749-1.265.108 0 .25 0 .405.016.032-.11.032-.157.032-.203 0-.219-.173-.297-.64-.297-.282 0-.594.031-.813.078l-.14.047-.094.016.14-.734c.5-.126.813-.172 1.188-.172.858 0 1.296.328 1.296.952 0 .172-.016.297-.078.656l-.203 1.172-.031.203-.032.172-.015.109-.016.094zm-.719-1.469c-.11-.015-.156-.015-.218-.015-.563 0-.843.171-.843.5 0 .202.124.343.343.343.407 0 .703-.343.719-.828zM18.156 20.07c-.343.093-.671.14-1.015.14-1.108 0-1.687-.516-1.687-1.484 0-1.125.735-1.953 1.734-1.953.812 0 1.328.469 1.328 1.187 0 .25-.031.485-.11.813h-1.983v.11c0 .374.28.577.859.577.359 0 .687-.062 1.03-.203l-.156.812zm-.53-1.953v-.172c0-.265-.173-.422-.47-.422-.312 0-.53.219-.625.595h1.094zM28.745 18.648c-.157 1.093-.922 1.577-1.937 1.577-1.108 0-1.56-.67-1.56-1.514 0-1.156.764-1.953 1.95-1.953 1.031 0 1.578.656 1.578 1.484 0 .204 0 .22-.031.406zm-1.03-.422c0-.343-.142-.655-.547-.655-.5 0-.813.593-.813 1.124 0 .438.22.735.563.735.219 0 .687-.297.765-.797.031-.125.031-.265.031-.407z" fill="#fff"/></symbol><symbol id="icon-mastercard" viewBox="0 0 37 37"><path d="M18.5 37C28.717 37 37 28.717 37 18.5S28.717 0 18.5 0 0 8.283 0 18.5 8.283 37 18.5 37z" fill="#3C80AD"/><path d="M12.452 9.52c-4.668.03-8.448 3.836-8.448 8.521 0 4.703 3.809 8.52 8.503 8.52 2.201 0 4.21-.84 5.72-2.22a8.56 8.56 0 0 0 .864-.913H17.35a8.255 8.255 0 0 1-.634-.878h3.003c.184-.292.349-.597.496-.911H16.22a8.298 8.298 0 0 1-.355-.895h4.706a8.592 8.592 0 0 0 .242-4.527h-5.198c.065-.304.146-.603.242-.896h4.709a8.512 8.512 0 0 0-.367-.912h-3.98c.144-.308.307-.606.488-.895h3.002c-.2-.32-.42-.624-.66-.912h-1.673c.26-.306.543-.593.852-.86a8.456 8.456 0 0 0-5.721-2.221h-.055z" fill="#931B1D"/><path d="M32.413 18.044c.001 4.705-3.803 8.52-8.5 8.522-4.695.001-8.502-3.813-8.504-8.519v-.003c-.001-4.707 3.804-8.522 8.5-8.523 4.696-.002 8.503 3.812 8.505 8.518v.005z" fill="#F16622"/><path d="M32.413 18.138c.001 4.705-3.803 8.521-8.5 8.522-4.695.002-8.502-3.813-8.504-8.518v-.004c-.001-4.706 3.804-8.522 8.5-8.523 4.696-.001 8.503 3.813 8.505 8.519v.004z" fill="#F7981D"/><path d="M12.452 9.617c-4.668.03-8.448 3.836-8.448 8.52 0 4.705 3.809 8.522 8.503 8.522a8.46 8.46 0 0 0 5.72-2.22v-.002c.31-.282.6-.586.864-.912H17.35a8.192 8.192 0 0 1-.634-.877h3.003c.184-.293.349-.598.496-.913H16.22a8.367 8.367 0 0 1-.355-.894h4.706a8.59 8.59 0 0 0 .242-4.527h-5.198c.065-.303.146-.603.242-.896h4.709a8.529 8.529 0 0 0-.367-.912h-3.98c.144-.307.307-.606.488-.895h3.002a8.6 8.6 0 0 0-.66-.913h-1.673c.26-.305.543-.593.852-.86a8.457 8.457 0 0 0-5.721-2.22h-.055z" fill="#CB2026"/><path d="M15.564 20.308l.113-.771c-.061 0-.153.026-.233.026-.315 0-.35-.168-.33-.292l.255-1.573h.479l.115-.854h-.45l.091-.53H14.7c-.02.02-.535 2.984-.535 3.344 0 .534.299.772.721.769.33-.003.588-.095.679-.12zM15.85 18.837c0 1.282.845 1.587 1.564 1.587.664 0 .956-.15.956-.15l.16-.875s-.505.225-.961.225c-.972 0-.802-.727-.802-.727h1.84s.118-.588.118-.828c0-.597-.297-1.326-1.29-1.326-.911 0-1.584.983-1.584 2.094zm1.588-1.282c.51 0 .417.576.417.622H16.85c0-.06.094-.622.588-.622zM23.17 20.307l.162-.99s-.444.225-.749.225c-.642 0-.9-.493-.9-1.02 0-1.071.553-1.66 1.169-1.66.46 0 .831.26.831.26l.148-.961s-.55-.224-1.02-.224c-1.045 0-2.062.908-2.062 2.616 0 1.13.55 1.878 1.63 1.878.305 0 .791-.124.791-.124zM10.585 16.758c-.62 0-1.096.2-1.096.2l-.131.781s.393-.16.986-.16c.337 0 .583.038.583.313 0 .167-.03.228-.03.228s-.265-.022-.389-.022c-.782 0-1.605.335-1.605 1.345 0 .795.54.978.874.978.639 0 .914-.415.929-.417l-.03.347h.797l.356-2.5c0-1.06-.923-1.093-1.244-1.093zm.194 2.034c.018.152-.095.868-.64.868-.281 0-.355-.216-.355-.343 0-.248.135-.546.799-.546.154 0 .17.017.197.02zM12.675 20.402c.204 0 1.369.052 1.369-1.153 0-1.127-1.079-.905-1.079-1.358 0-.224.176-.296.497-.296.128 0 .62.04.62.04l.114-.8s-.318-.071-.835-.071c-.67 0-1.35.267-1.35 1.184 0 1.04 1.134.934 1.134 1.372 0 .292-.317.316-.562.316-.421 0-.801-.145-.803-.139l-.12.793c.02.007.255.112 1.015.112zM30.669 16.04l-.195 1.213s-.34-.471-.874-.471c-.83 0-1.52 1.002-1.52 2.154 0 .743.367 1.47 1.122 1.47.542 0 .842-.378.842-.378l-.04.323h.881l.692-4.314-.908.002zm-.42 2.367c0 .48-.237 1.119-.728 1.119-.326 0-.478-.274-.478-.705 0-.702.315-1.168.712-1.168.326 0 .494.226.494.754zM5.683 20.355l.552-3.257.08 3.257h.624l1.163-3.257-.515 3.257h.926l.715-4.319H7.794l-.892 2.65-.047-2.65h-1.32l-.724 4.32h.872zM19.63 20.36c.264-1.5.313-2.72.942-2.498.11-.58.216-.805.336-1.051 0 0-.056-.012-.175-.012-.404 0-.705.555-.705.555l.08-.51h-.843l-.564 3.517h.93zM25.26 16.758c-.622 0-1.097.2-1.097.2l-.131.781s.392-.16.986-.16c.337 0 .584.038.584.313 0 .167-.03.228-.03.228s-.266-.022-.39-.022c-.783 0-1.605.335-1.605 1.345 0 .795.54.978.874.978.639 0 .914-.415.928-.417l-.03.347h.798l.356-2.5c0-1.06-.922-1.093-1.244-1.093zm.194 2.034c.017.152-.096.868-.642.868-.28 0-.353-.216-.353-.343 0-.248.135-.546.797-.546.155 0 .171.017.198.02zM27.23 20.36c.264-1.5.313-2.72.942-2.498.11-.58.216-.805.337-1.051 0 0-.058-.012-.175-.012-.406 0-.706.555-.706.555l.08-.51h-.843l-.564 3.517h.93z" fill="#fff"/></symbol><symbol id="icon-visa" viewBox="0 0 37 37"><g clip-path="url(#a)"><path d="M18.5 37C28.717 37 37 28.718 37 18.501 37 8.284 28.716.002 18.5.002S.001 8.284.001 18.502C.001 28.717 8.283 37 18.501 37z" fill="#F3F2F2"/><path d="M13.698 22.05l1.416-8.36h2.292l-1.416 8.36h-2.292zM24.15 13.906a5.952 5.952 0 0 0-2.054-.35c-2.265 0-3.86 1.134-3.875 2.758-.012 1.201 1.14 1.87 2.01 2.271.891.409 1.191.671 1.187 1.037-.006.56-.713.816-1.372.816-.917 0-1.404-.127-2.157-.439l-.296-.133-.322 1.872c.536.233 1.526.435 2.554.446 2.409-.001 3.974-1.12 3.991-2.856.009-.951-.602-1.675-1.924-2.271-.802-.387-1.292-.644-1.287-1.037 0-.347.416-.718 1.313-.718a4.25 4.25 0 0 1 1.715.32l.206.096.31-1.812zM28.056 13.69c-.549 0-.946.168-1.187.712l-3.396 7.647h2.426l.472-1.28h2.899l.27 1.28h2.157l-1.888-8.358h-1.753zm-1.041 5.406l.913-2.336c-.014.022.188-.484.304-.798l.155.72.53 2.414h-1.902zM9.52 19.42l-.202-1.146c-.419-1.335-1.717-2.78-3.172-3.505l2.025 7.28h2.427l3.64-8.359h-2.426l-2.293 5.73z" fill="#293688"/><path d="M3.655 13.69v.135c2.876.692 4.873 2.44 5.663 4.45l-.831-3.871c-.139-.53-.56-.695-1.057-.713H3.655zM18.499 37c7.14 0 13.331-4.048 16.415-9.972H2.084C5.168 32.952 11.359 37 18.499 37z" fill="#F7981D"/><path d="M18.499 0C11.472 0 5.36 3.918 2.229 9.688h32.54C31.637 3.918 25.526 0 18.5 0z" fill="#293688"/></g></symbol><symbol id="icon-vk" viewBox="0 0 19 19"><g clip-path="url(#a)"><path d="M18.585 13.638c-.05-.084-.357-.752-1.837-2.126-1.55-1.438-1.342-1.205.525-3.692 1.136-1.515 1.59-2.44 1.449-2.835-.136-.377-.972-.278-.972-.278l-2.78.016s-.205-.027-.36.064c-.148.09-.244.298-.244.298s-.44 1.173-1.028 2.17c-1.239 2.103-1.735 2.214-1.937 2.083-.47-.304-.353-1.223-.353-1.875 0-2.039.309-2.889-.602-3.108-.303-.073-.525-.122-1.299-.13-.992-.01-1.833.004-2.308.236-.317.155-.56.5-.412.52.184.025.6.112.821.413.286.388.276 1.26.276 1.26s.164 2.399-.383 2.697c-.376.205-.89-.213-1.995-2.122a17.796 17.796 0 0 1-.993-2.058s-.082-.201-.23-.309a1.153 1.153 0 0 0-.427-.172l-2.643.016s-.397.012-.543.184c-.13.154-.01.47-.01.47s2.07 4.842 4.413 7.283c2.15 2.238 4.589 2.09 4.589 2.09h1.106s.334-.036.504-.22c.157-.169.151-.486.151-.486s-.022-1.483.667-1.702c.68-.215 1.551 1.434 2.475 2.069.698.48 1.23.374 1.23.374l2.47-.034s1.293-.08.68-1.096z" fill="#81B03F"/></g></symbol><symbol id="main-nav-toggler" viewBox="0 0 56 56"><g filter="url(#a)"><path d="M46 28c0 9.941-8.059 18-18 18s-18-8.059-18-18 8.059-18 18-18 18 8.059 18 18z" fill="url(#b)"/><path fill-rule="evenodd" clip-rule="evenodd" d="M19 23a1 1 0 0 1 1-1h17a1 1 0 1 1 0 2H20a1 1 0 0 1-1-1zm0 5.555a1 1 0 0 1 1-1h8a1 1 0 1 1 0 2h-8a1 1 0 0 1-1-1zm1 4.555a1 1 0 1 0 0 2h12a1 1 0 1 0 0-2H20z" fill="#fff"/></g></symbol><symbol id="temp-icon-left-arrow" viewBox="0 0 31.494 31.494"><path d="M10.273 5.01a1.117 1.117 0 0 1 1.587 1.57l-8.047 8.047h26.554c.62 0 1.127.492 1.127 1.11 0 .62-.508 1.128-1.127 1.128H3.813l8.047 8.032c.43.444.43 1.16 0 1.587a1.112 1.112 0 0 1-1.587 0L.32 16.532a1.12 1.12 0 0 1 0-1.57l9.953-9.953z" fill="#1E201D"/></symbol><symbol id="temp-icon-right-arrow" viewBox="0 0 31.49 31.49"><path d="M21.205 5.007a1.117 1.117 0 0 0-1.587 1.57l8.047 8.048H1.11c-.618 0-1.11.493-1.11 1.112 0 .62.492 1.127 1.11 1.127h26.555l-8.047 8.032c-.43.444-.43 1.16 0 1.587.444.444 1.16.444 1.587 0l9.952-9.952a1.092 1.092 0 0 0 0-1.57l-9.952-9.95z" fill="#1E201D"/></symbol></svg>