<svg width="1905" height="76" viewBox="0 0 1905 76" fill="none" xmlns="http://www.w3.org/2000/svg">
<path d="M1905 9.14155L1841 6.34708C1777 3.65707 1649 -2.08858 1521 0.784245C1393 3.65707 1265 14.626 1137 28.6506C1009 42.5708 881 59.2854 753 64.8482C625 70.5155 497 64.7699 369 57.9012C241 50.9281 113 42.5708 48.9999 38.3921L-15.0001 34.2135V76H48.9999C113 76 241 76 369 76C497 76 625 76 753 76C881 76 1009 76 1137 76C1265 76 1393 76 1521 76C1649 76 1777 76 1841 76H1905V9.14155Z" fill="white"/>
</svg>
