<svg width="16" height="16" viewBox="0 0 16 16" fill="none" xmlns="http://www.w3.org/2000/svg">
<path fill-rule="evenodd" clip-rule="evenodd" d="M13.799 15.0711C14.1895 15.4616 14.8227 15.4616 15.2132 15.0711C15.6037 14.6805 15.6037 14.0474 15.2132 13.6569L9.55635 8L15.2132 2.34315C15.6037 1.95262 15.6037 1.31946 15.2132 0.928932C14.8227 0.538408 14.1895 0.538408 13.799 0.928932L8.14213 6.58579L2.48528 0.928933C2.09476 0.538409 1.46159 0.538409 1.07107 0.928933C0.680542 1.31946 0.680543 1.95262 1.07107 2.34315L6.72792 8L1.07107 13.6569C0.680543 14.0474 0.680543 14.6805 1.07107 15.0711C1.46159 15.4616 2.09476 15.4616 2.48528 15.0711L8.14214 9.41421L13.799 15.0711Z" fill="url(#paint0_linear)"/>
<defs>
<linearGradient id="paint0_linear" x1="9.2991" y1="-4.98517" x2="-4.7461" y2="11.5075" gradientUnits="userSpaceOnUse">
<stop stop-color="#08CB56"/>
<stop offset="1" stop-color="#1FE16D"/>
</linearGradient>
</defs>
</svg>
